<?xml version="1.0" encoding="utf-8"?>
<!-- Generator: Adobe Illustrator 24.0.1, SVG Export Plug-In . SVG Version: 6.00 Build 0)  -->
<svg version="1.1" id="Layer_1" xmlns="http://www.w3.org/2000/svg" xmlns:xlink="http://www.w3.org/1999/xlink" x="0px" y="0px"
	 viewBox="0 0 249.3 461.3" style="enable-background:new 0 0 249.3 461.3;" xml:space="preserve">
<style type="text/css">
	.st0{fill:#3162AE;stroke:#000000;stroke-width:1;stroke-miterlimit:9.9998;}
	.st1{fill:#FFFFFF;stroke:#000000;stroke-width:1;stroke-miterlimit:9.9998;}
</style>
<rect x="102.8" y="53.4" transform="matrix(0.7071 -0.7071 0.7071 0.7071 3.6955 145.7709)" class="st0" width="150" height="30"/>
<rect x="102.8" y="96.9" transform="matrix(0.7071 -0.7071 0.7071 0.7071 -27.0514 158.5253)" class="st0" width="150" height="30"/>
<rect x="102.8" y="140.3" transform="matrix(0.7071 -0.7071 0.7071 0.7071 -57.769 171.2088)" class="st1" width="150" height="30"/>
<rect x="102.8" y="183.8" transform="matrix(0.7071 -0.7071 0.7071 0.7071 -88.5099 183.9631)" class="st1" width="150" height="30"/>
<rect x="55.4" y="15.4" transform="matrix(0.7071 -0.7071 0.7071 0.7071 -43.3034 76.2977)" class="st1" width="30" height="150"/>
<rect x="55.4" y="58.7" transform="matrix(0.7071 -0.7071 0.7071 0.7071 -73.9475 88.9503)" class="st1" width="30" height="150"/>
<rect x="55.5" y="102.1" transform="matrix(0.7071 -0.7071 0.7071 0.7071 -104.5503 101.7089)" class="st1" width="30" height="150"/>
<rect x="55.4" y="145.4" transform="matrix(0.7071 -0.7071 0.7071 0.7071 -135.2652 114.3324)" class="st1" width="30" height="150"/>
<rect x="102.8" y="227.3" transform="matrix(0.7071 -0.7071 0.7071 0.7071 -119.2569 196.7173)" class="st0" width="150" height="30"/>
<rect x="102.8" y="270.7" transform="matrix(0.7071 -0.7071 0.7071 0.7071 -149.9745 209.401)" class="st0" width="150" height="30"/>
<rect x="102.8" y="314.2" transform="matrix(0.7071 -0.7071 0.7071 0.7071 -180.7214 222.1553)" class="st1" width="150" height="30"/>
<rect x="102.8" y="357.7" transform="matrix(0.7071 -0.7071 0.7071 0.7071 -211.4625 234.9096)" class="st1" width="150" height="30"/>
<rect x="55.4" y="188.8" transform="matrix(0.7071 -0.7071 0.7071 0.7071 -165.9386 127.0558)" class="st1" width="30" height="150"/>
<rect x="55.4" y="232.2" transform="matrix(0.7071 -0.7071 0.7071 0.7071 -196.6121 139.785)" class="st1" width="30" height="150"/>
<rect x="55.4" y="275.5" transform="matrix(0.7071 -0.7071 0.7071 0.7071 -227.2563 152.4377)" class="st1" width="30" height="150"/>
<rect x="55.4" y="318.9" transform="matrix(0.7071 -0.7071 0.7071 0.7071 -257.9297 165.167)" class="st1" width="30" height="150"/>
</svg>
