<?xml version="1.0" encoding="utf-8"?>
<!-- Generator: Adobe Illustrator 24.0.1, SVG Export Plug-In . SVG Version: 6.00 Build 0)  -->
<svg version="1.1" id="Layer_1" xmlns="http://www.w3.org/2000/svg" xmlns:xlink="http://www.w3.org/1999/xlink" x="0px" y="0px"
	 viewBox="0 0 249.3 461.3" style="enable-background:new 0 0 249.3 461.3;" xml:space="preserve">
<style type="text/css">
	.st0{fill:#FFCA13;stroke:#000000;stroke-width:1;stroke-miterlimit:9.9999;}
	.st1{fill:#FFFFFF;stroke:#000000;stroke-width:1;stroke-miterlimit:9.9999;}
</style>
<rect x="102.8" y="53.4" transform="matrix(0.7071 -0.7071 0.7071 0.7071 3.7208 145.7813)" class="st0" width="150" height="30"/>
<rect x="102.8" y="96.9" transform="matrix(0.7071 -0.7071 0.7071 0.7071 -27.0156 158.5144)" class="st0" width="150" height="30"/>
<rect x="102.8" y="140.3" transform="matrix(0.7071 -0.7071 0.7071 0.7071 -57.7522 171.2475)" class="st1" width="150" height="30"/>
<rect x="102.8" y="183.8" transform="matrix(0.7071 -0.7071 0.7071 0.7071 -88.4857 183.9734)" class="st1" width="150" height="30"/>
<rect x="55.4" y="15.4" transform="matrix(0.7071 -0.7071 0.7071 0.7071 -43.2539 76.2787)" class="st1" width="30" height="150"/>
<rect x="55.4" y="58.7" transform="matrix(0.7071 -0.7071 0.7071 0.7071 -73.9203 88.9783)" class="st1" width="30" height="150"/>
<rect x="55.5" y="102.1" transform="matrix(0.7071 -0.7071 0.7071 0.7071 -104.5796 101.681)" class="st1" width="30" height="150"/>
<rect x="55.4" y="145.4" transform="matrix(0.7071 -0.7071 0.7071 0.7071 -135.2459 114.3807)" class="st1" width="30" height="150"/>
<rect x="102.8" y="227.3" transform="matrix(0.7071 -0.7071 0.7071 0.7071 -119.2223 196.7065)" class="st0" width="150" height="30"/>
<rect x="102.8" y="270.7" transform="matrix(0.7071 -0.7071 0.7071 0.7071 -149.9587 209.4396)" class="st0" width="150" height="30"/>
<rect x="102.8" y="314.2" transform="matrix(0.7071 -0.7071 0.7071 0.7071 -180.6952 222.1727)" class="st1" width="150" height="30"/>
<rect x="102.8" y="357.7" transform="matrix(0.7071 -0.7071 0.7071 0.7071 -211.4288 234.8988)" class="st1" width="150" height="30"/>
<rect x="55.4" y="188.8" transform="matrix(0.7071 -0.7071 0.7071 0.7071 -165.9122 127.0804)" class="st1" width="30" height="150"/>
<rect x="55.4" y="232.2" transform="matrix(0.7071 -0.7071 0.7071 0.7071 -196.5715 139.783)" class="st1" width="30" height="150"/>
<rect x="55.4" y="275.5" transform="matrix(0.7071 -0.7071 0.7071 0.7071 -227.2379 152.4828)" class="st1" width="30" height="150"/>
<rect x="55.4" y="318.9" transform="matrix(0.7071 -0.7071 0.7071 0.7071 -257.8972 165.1854)" class="st1" width="30" height="150"/>
</svg>
