<?xml version="1.0" encoding="utf-8"?>
<!-- Generator: Adobe Illustrator 19.0.0, SVG Export Plug-In . SVG Version: 6.00 Build 0)  -->
<svg version="1.1" id="Layer_1" xmlns="http://www.w3.org/2000/svg" xmlns:xlink="http://www.w3.org/1999/xlink" x="0px" y="0px"
	 viewBox="-180 166.7 249.3 461.3" style="enable-background:new -180 166.7 249.3 461.3;" xml:space="preserve">
<style type="text/css">
	.st0{fill:#F8D911;stroke:#000000;stroke-miterlimit:9.9999;}
	.st1{fill:#3F6D46;stroke:#000000;stroke-miterlimit:9.9999;}
</style>
<rect x="-124" y="159.6" transform="matrix(0.7071 -0.7071 0.7071 0.7071 -197.7972 -8.3957)" class="st0" width="30" height="150"/>
<rect x="-124" y="203.1" transform="matrix(0.7071 -0.7071 0.7071 0.7071 -228.5354 4.3875)" class="st1" width="30" height="150"/>
<rect x="-124.1" y="246.6" transform="matrix(0.7071 -0.7071 0.7071 0.7071 -259.3318 17.0291)" class="st0" width="30" height="150"/>
<rect x="-124" y="290" transform="matrix(0.7071 -0.7071 0.7071 0.7071 -290.005 29.797)" class="st1" width="30" height="150"/>
<rect x="-76.6" y="241.5" transform="matrix(0.7071 -0.7071 0.7071 0.7071 -181.878 73.9784)" class="st1" width="150" height="30"/>
<rect x="-76.7" y="284.9" transform="matrix(0.7071 -0.7071 0.7071 0.7071 -212.5812 86.6664)" class="st1" width="150" height="30"/>
<rect x="-76.6" y="328.2" transform="matrix(0.7071 -0.7071 0.7071 0.7071 -243.1702 99.402)" class="st1" width="150" height="30"/>
<rect x="-76.7" y="371.6" transform="matrix(0.7071 -0.7071 0.7071 0.7071 -273.9027 112.0194)" class="st1" width="150" height="30"/>
<rect x="-124" y="333.5" transform="matrix(0.7071 -0.7071 0.7071 0.7071 -320.7433 42.5803)" class="st0" width="30" height="150"/>
<rect x="-124.1" y="377" transform="matrix(0.7071 -0.7071 0.7071 0.7071 -351.5399 55.2221)" class="st1" width="30" height="150"/>
<rect x="-124" y="420.5" transform="matrix(0.7071 -0.7071 0.7071 0.7071 -382.2776 68.0052)" class="st0" width="30" height="150"/>
<rect x="-124" y="463.9" transform="matrix(0.7071 -0.7071 0.7071 0.7071 -412.9509 80.7731)" class="st1" width="30" height="150"/>
<rect x="-76.7" y="415" transform="matrix(0.7071 -0.7071 0.7071 0.7071 -304.5765 124.7782)" class="st1" width="150" height="30"/>
<rect x="-76.6" y="458.3" transform="matrix(0.7071 -0.7071 0.7071 0.7071 -335.1656 137.5138)" class="st1" width="150" height="30"/>
<rect x="-76.7" y="501.7" transform="matrix(0.7071 -0.7071 0.7071 0.7071 -365.8983 150.131)" class="st1" width="150" height="30"/>
<rect x="-76.6" y="545.1" transform="matrix(0.7071 -0.7071 0.7071 0.7071 -396.5578 162.8957)" class="st1" width="150" height="30"/>
</svg>
