<?xml version="1.0" encoding="utf-8"?>
<!-- Generator: Adobe Illustrator 19.0.0, SVG Export Plug-In . SVG Version: 6.00 Build 0)  -->
<svg version="1.1" id="Layer_1" xmlns="http://www.w3.org/2000/svg" xmlns:xlink="http://www.w3.org/1999/xlink" x="0px" y="0px"
	 viewBox="-180 166.7 249.3 461.3" style="enable-background:new -180 166.7 249.3 461.3;" xml:space="preserve">
<style type="text/css">
	.st0{fill:#F8D911;stroke:#000000;stroke-miterlimit:9.9998;}
	.st1{fill:#CCA056;stroke:#000000;stroke-miterlimit:9.9998;}
</style>
<rect x="-76.6" y="215.4" transform="matrix(0.7071 -0.7071 0.7071 0.7071 -163.3516 66.3612)" class="st0" width="150" height="30"/>
<rect x="-76.7" y="259.9" transform="matrix(0.7071 -0.7071 0.7071 0.7071 -194.8523 79.3335)" class="st0" width="150" height="30"/>
<rect x="-76.7" y="304.4" transform="matrix(0.7071 -0.7071 0.7071 0.7071 -226.3697 92.389)" class="st1" width="150" height="30"/>
<rect x="-76.6" y="349" transform="matrix(0.7071 -0.7071 0.7071 0.7071 -257.8287 105.5031)" class="st1" width="150" height="30"/>
<rect x="-124" y="177.6" transform="matrix(0.7071 -0.7071 0.7071 0.7071 -210.5254 -3.0623)" class="st1" width="30" height="150"/>
<rect x="-124.1" y="222.2" transform="matrix(0.7071 -0.7071 0.7071 0.7071 -242.0811 9.9136)" class="st1" width="30" height="150"/>
<rect x="-123.9" y="266.6" transform="matrix(0.7071 -0.7071 0.7071 0.7071 -273.466 23.0844)" class="st1" width="30" height="150"/>
<rect x="-124.1" y="311.2" transform="matrix(0.7071 -0.7071 0.7071 0.7071 -305.0634 35.9773)" class="st1" width="30" height="150"/>
<rect x="-76.7" y="393.5" transform="matrix(0.7071 -0.7071 0.7071 0.7071 -289.3289 118.4757)" class="st0" width="150" height="30"/>
<rect x="-76.7" y="438.1" transform="matrix(0.7071 -0.7071 0.7071 0.7071 -320.847 131.5306)" class="st0" width="150" height="30"/>
<rect x="-76.6" y="482.5" transform="matrix(0.7071 -0.7071 0.7071 0.7071 -352.2768 144.5738)" class="st1" width="150" height="30"/>
<rect x="-76.6" y="527.1" transform="matrix(0.7071 -0.7071 0.7071 0.7071 -383.8065 157.6171)" class="st1" width="150" height="30"/>
<rect x="-124.1" y="355.7" transform="matrix(0.7071 -0.7071 0.7071 0.7071 -336.5315 48.9821)" class="st1" width="30" height="150"/>
<rect x="-124.1" y="400.3" transform="matrix(0.7071 -0.7071 0.7071 0.7071 -368.0283 62.0998)" class="st1" width="30" height="150"/>
<rect x="-124" y="444.9" transform="matrix(0.7071 -0.7071 0.7071 0.7071 -399.5426 75.1584)" class="st1" width="30" height="150"/>
<rect x="-124" y="489.3" transform="matrix(0.7071 -0.7071 0.7071 0.7071 -430.981 88.193)" class="st1" width="30" height="150"/>
</svg>
