<?xml version="1.0" encoding="utf-8"?>
<!-- Generator: Adobe Illustrator 19.0.0, SVG Export Plug-In . SVG Version: 6.00 Build 0)  -->
<svg version="1.1" id="Layer_1" xmlns="http://www.w3.org/2000/svg" xmlns:xlink="http://www.w3.org/1999/xlink" x="0px" y="0px"
	 viewBox="-180 166.7 249.3 461.3" style="enable-background:new -180 166.7 249.3 461.3;" xml:space="preserve">
<style type="text/css">
	.st0{fill:#3F6D46;stroke:#000000;stroke-miterlimit:9.9999;}
	.st1{fill:#F8D911;stroke:#000000;stroke-miterlimit:9.9999;}
</style>
<rect x="-124" y="159.6" transform="matrix(-0.7071 0.7071 -0.7071 -0.7071 -20.2212 477.5238)" class="st0" width="30" height="150"/>
<rect x="-124" y="203.1" transform="matrix(-0.7071 0.7071 -0.7071 -0.7071 10.5992 551.7785)" class="st1" width="30" height="150"/>
<rect x="-124.1" y="246.5" transform="matrix(-0.7071 0.7071 -0.7071 -0.7071 41.0782 626.0328)" class="st0" width="30" height="150"/>
<rect x="-124" y="290" transform="matrix(-0.7071 0.7071 -0.7071 -0.7071 71.9834 700.1307)" class="st1" width="30" height="150"/>
<rect x="-76.6" y="241.5" transform="matrix(-0.7071 0.7071 -0.7071 -0.7071 178.6007 439.0376)" class="st1" width="150" height="30"/>
<rect x="-76.7" y="284.9" transform="matrix(-0.7071 0.7071 -0.7071 -0.7071 209.1823 513.2025)" class="st1" width="150" height="30"/>
<rect x="-76.6" y="328.3" transform="matrix(-0.7071 0.7071 -0.7071 -0.7071 240.0199 587.1119)" class="st1" width="150" height="30"/>
<rect x="-76.7" y="371.6" transform="matrix(-0.7071 0.7071 -0.7071 -0.7071 270.4309 661.2061)" class="st1" width="150" height="30"/>
<rect x="-124" y="333.5" transform="matrix(-0.7071 0.7071 -0.7071 -0.7071 102.8039 774.3855)" class="st0" width="30" height="150"/>
<rect x="-124.1" y="376.9" transform="matrix(-0.7071 0.7071 -0.7071 -0.7071 133.283 848.64)" class="st1" width="30" height="150"/>
<rect x="-124.1" y="420.4" transform="matrix(-0.7071 0.7071 -0.7071 -0.7071 164.1036 922.8942)" class="st0" width="30" height="150"/>
<rect x="-124" y="463.9" transform="matrix(-0.7071 0.7071 -0.7071 -0.7071 195.0087 996.9921)" class="st1" width="30" height="150"/>
<rect x="-76.7" y="415" transform="matrix(-0.7071 0.7071 -0.7071 -0.7071 301.1834 735.3003)" class="st1" width="150" height="30"/>
<rect x="-76.6" y="458.4" transform="matrix(-0.7071 0.7071 -0.7071 -0.7071 332.0209 809.2098)" class="st1" width="150" height="30"/>
<rect x="-76.7" y="501.7" transform="matrix(-0.7071 0.7071 -0.7071 -0.7071 362.4316 883.3042)" class="st1" width="150" height="30"/>
<rect x="-76.7" y="545.1" transform="matrix(-0.7071 0.7071 -0.7071 -0.7071 393.1983 957.384)" class="st1" width="150" height="30"/>
</svg>
