<?xml version="1.0" encoding="utf-8"?>
<!-- Generator: Adobe Illustrator 19.0.0, SVG Export Plug-In . SVG Version: 6.00 Build 0)  -->
<svg version="1.1" id="Layer_1" xmlns="http://www.w3.org/2000/svg" xmlns:xlink="http://www.w3.org/1999/xlink" x="0px" y="0px"
	 viewBox="-180 166.7 249.3 461.3" style="enable-background:new -180 166.7 249.3 461.3;" xml:space="preserve">
<style type="text/css">
	.st0{fill:#CC3333;stroke:#000000;stroke-miterlimit:9.9998;}
	.st1{fill:#525660;stroke:#000000;stroke-miterlimit:9.9998;}
</style>
<rect x="-124" y="159.5" transform="matrix(0.7071 -0.7071 0.7071 0.7071 -197.7506 -8.3885)" class="st0" width="30" height="150"/>
<rect x="-124" y="203.1" transform="matrix(0.7071 -0.7071 0.7071 0.7071 -228.5705 4.3446)" class="st0" width="30" height="150"/>
<rect x="-124.1" y="246.5" transform="matrix(0.7071 -0.7071 0.7071 0.7071 -259.3087 17.0434)" class="st1" width="30" height="150"/>
<rect x="-124" y="289.9" transform="matrix(0.7071 -0.7071 0.7071 0.7071 -289.9585 29.8055)" class="st1" width="30" height="150"/>
<rect x="-76.6" y="241.5" transform="matrix(0.7071 -0.7071 0.7071 0.7071 -181.8773 73.995)" class="st1" width="150" height="30"/>
<rect x="-76.7" y="284.9" transform="matrix(0.7071 -0.7071 0.7071 0.7071 -212.5488 86.6723)" class="st1" width="150" height="30"/>
<rect x="-76.7" y="328.3" transform="matrix(0.7071 -0.7071 0.7071 0.7071 -243.2209 99.3422)" class="st1" width="150" height="30"/>
<rect x="-76.7" y="371.5" transform="matrix(0.7071 -0.7071 0.7071 0.7071 -273.8045 112.0316)" class="st1" width="150" height="30"/>
<rect x="-124" y="333.5" transform="matrix(0.7071 -0.7071 0.7071 0.7071 -320.7791 42.5383)" class="st0" width="30" height="150"/>
<rect x="-124.1" y="376.9" transform="matrix(0.7071 -0.7071 0.7071 0.7071 -351.5164 55.2372)" class="st0" width="30" height="150"/>
<rect x="-124" y="420.4" transform="matrix(0.7071 -0.7071 0.7071 0.7071 -382.2368 68.0118)" class="st1" width="30" height="150"/>
<rect x="-124" y="463.9" transform="matrix(0.7071 -0.7071 0.7071 0.7071 -412.9865 80.7319)" class="st1" width="30" height="150"/>
<rect x="-76.6" y="415" transform="matrix(0.7071 -0.7071 0.7071 0.7071 -304.5416 124.7847)" class="st1" width="150" height="30"/>
<rect x="-76.7" y="458.5" transform="matrix(0.7071 -0.7071 0.7071 0.7071 -335.2796 137.4963)" class="st1" width="150" height="30"/>
<rect x="-76.7" y="501.7" transform="matrix(0.7071 -0.7071 0.7071 0.7071 -365.8801 150.144)" class="st1" width="150" height="30"/>
<rect x="-76.7" y="545.2" transform="matrix(0.7071 -0.7071 0.7071 0.7071 -396.618 162.8556)" class="st1" width="150" height="30"/>
</svg>
