<?xml version="1.0" encoding="utf-8"?>
<!-- Generator: Adobe Illustrator 19.0.0, SVG Export Plug-In . SVG Version: 6.00 Build 0)  -->
<svg version="1.1" id="Layer_1" xmlns="http://www.w3.org/2000/svg" xmlns:xlink="http://www.w3.org/1999/xlink" x="0px" y="0px"
	 viewBox="-180 166.7 249.3 461.3" style="enable-background:new -180 166.7 249.3 461.3;" xml:space="preserve">
<style type="text/css">
	.st0{fill:#097BB6;stroke:#000000;stroke-miterlimit:9.9998;}
	.st1{fill:#FFFFFF;stroke:#000000;stroke-miterlimit:9.9998;}
</style>
<rect x="-124.6" y="160.1" transform="matrix(-0.7071 0.7071 -0.7071 -0.7071 -20.883 478.8662)" class="st0" width="30" height="150"/>
<rect x="-124.6" y="203.6" transform="matrix(-0.7071 0.7071 -0.7071 -0.7071 9.8609 553.0946)" class="st0" width="30" height="150"/>
<rect x="-124.6" y="247" transform="matrix(-0.7071 0.7071 -0.7071 -0.7071 40.576 627.2524)" class="st1" width="30" height="150"/>
<rect x="-124.6" y="290.5" transform="matrix(-0.7071 0.7071 -0.7071 -0.7071 71.3243 701.4706)" class="st1" width="30" height="150"/>
<rect x="-77.2" y="242.1" transform="matrix(-0.7071 0.7071 -0.7071 -0.7071 177.9804 440.438)" class="st1" width="150" height="30"/>
<rect x="-77.2" y="285.4" transform="matrix(-0.7071 0.7071 -0.7071 -0.7071 208.6293 514.4215)" class="st1" width="150" height="30"/>
<rect x="-77.3" y="328.8" transform="matrix(-0.7071 0.7071 -0.7071 -0.7071 239.2266 588.501)" class="st1" width="150" height="30"/>
<rect x="-77.2" y="372.1" transform="matrix(-0.7071 0.7071 -0.7071 -0.7071 269.9461 662.455)" class="st1" width="150" height="30"/>
<rect x="-124.6" y="334" transform="matrix(-0.7071 0.7071 -0.7071 -0.7071 102.0685 775.6992)" class="st0" width="30" height="150"/>
<rect x="-124.6" y="377.4" transform="matrix(-0.7071 0.7071 -0.7071 -0.7071 132.7832 849.8569)" class="st0" width="30" height="150"/>
<rect x="-124.6" y="420.9" transform="matrix(-0.7071 0.7071 -0.7071 -0.7071 163.5274 924.0853)" class="st1" width="30" height="150"/>
<rect x="-124.6" y="464.4" transform="matrix(-0.7071 0.7071 -0.7071 -0.7071 194.2756 998.3039)" class="st1" width="30" height="150"/>
<rect x="-77.2" y="415.5" transform="matrix(-0.7071 0.7071 -0.7071 -0.7071 300.6242 736.5092)" class="st1" width="150" height="30"/>
<rect x="-77.2" y="458.9" transform="matrix(-0.7071 0.7071 -0.7071 -0.7071 331.2924 810.5593)" class="st1" width="150" height="30"/>
<rect x="-77.2" y="502.2" transform="matrix(-0.7071 0.7071 -0.7071 -0.7071 361.9411 884.5428)" class="st1" width="150" height="30"/>
<rect x="-77.2" y="545.6" transform="matrix(-0.7071 0.7071 -0.7071 -0.7071 392.6093 958.5929)" class="st1" width="150" height="30"/>
</svg>
