<?xml version="1.0" encoding="utf-8"?>
<!-- Generator: Adobe Illustrator 19.0.0, SVG Export Plug-In . SVG Version: 6.00 Build 0)  -->
<svg version="1.1" id="Layer_1" xmlns="http://www.w3.org/2000/svg" xmlns:xlink="http://www.w3.org/1999/xlink" x="0px" y="0px"
	 viewBox="-180 166.7 249.3 461.3" style="enable-background:new -180 166.7 249.3 461.3;" xml:space="preserve">
<style type="text/css">
	.st0{fill:#F8D911;stroke:#000000;stroke-miterlimit:9.9998;}
	.st1{fill:#CCA056;stroke:#000000;stroke-miterlimit:9.9998;}
</style>
<rect x="-124" y="159.6" transform="matrix(-0.7071 0.7071 -0.7071 -0.7071 -20.189 477.4807)" class="st0" width="30" height="150"/>
<rect x="-124" y="203.1" transform="matrix(-0.7071 0.7071 -0.7071 -0.7071 10.5301 551.809)" class="st0" width="30" height="150"/>
<rect x="-124.1" y="246.5" transform="matrix(-0.7071 0.7071 -0.7071 -0.7071 41.1072 626.0214)" class="st1" width="30" height="150"/>
<rect x="-124" y="290" transform="matrix(-0.7071 0.7071 -0.7071 -0.7071 72.0171 700.0882)" class="st1" width="30" height="150"/>
<rect x="-76.6" y="241.6" transform="matrix(-0.7071 0.7071 -0.7071 -0.7071 178.692 439.1253)" class="st1" width="150" height="30"/>
<rect x="-76.7" y="284.9" transform="matrix(-0.7071 0.7071 -0.7071 -0.7071 209.2059 513.1758)" class="st1" width="150" height="30"/>
<rect x="-76.7" y="328.3" transform="matrix(-0.7071 0.7071 -0.7071 -0.7071 239.8519 587.2235)" class="st1" width="150" height="30"/>
<rect x="-76.6" y="371.5" transform="matrix(-0.7071 0.7071 -0.7071 -0.7071 270.495 660.9618)" class="st1" width="150" height="30"/>
<rect x="-124" y="333.5" transform="matrix(-0.7071 0.7071 -0.7071 -0.7071 102.7355 774.4172)" class="st1" width="30" height="150"/>
<rect x="-124.1" y="376.9" transform="matrix(-0.7071 0.7071 -0.7071 -0.7071 133.3132 848.6287)" class="st1" width="30" height="150"/>
<rect x="-124.1" y="420.4" transform="matrix(-0.7071 0.7071 -0.7071 -0.7071 164.1322 922.8578)" class="st1" width="30" height="150"/>
<rect x="-124" y="463.9" transform="matrix(-0.7071 0.7071 -0.7071 -0.7071 194.9414 997.0241)" class="st1" width="30" height="150"/>
<rect x="-76.7" y="415" transform="matrix(-0.7071 0.7071 -0.7071 -0.7071 301.2089 735.2708)" class="st1" width="150" height="30"/>
<rect x="-76.7" y="458.4" transform="matrix(-0.7071 0.7071 -0.7071 -0.7071 331.8723 809.4189)" class="st1" width="150" height="30"/>
<rect x="-76.7" y="501.7" transform="matrix(-0.7071 0.7071 -0.7071 -0.7071 362.4566 883.2983)" class="st1" width="150" height="30"/>
<rect x="-76.7" y="545.1" transform="matrix(-0.7071 0.7071 -0.7071 -0.7071 393.1201 957.4461)" class="st1" width="150" height="30"/>
</svg>
