<?xml version="1.0" encoding="utf-8"?>
<!-- Generator: Adobe Illustrator 19.0.0, SVG Export Plug-In . SVG Version: 6.00 Build 0)  -->
<svg version="1.1" id="Layer_1" xmlns="http://www.w3.org/2000/svg" xmlns:xlink="http://www.w3.org/1999/xlink" x="0px" y="0px"
	 viewBox="-180 166.7 249.3 461.3" style="enable-background:new -180 166.7 249.3 461.3;" xml:space="preserve">
<style type="text/css">
	.st0{fill:#F8D911;stroke:#000000;stroke-miterlimit:9.9998;}
	.st1{fill:#CC3333;stroke:#000000;stroke-miterlimit:9.9998;}
</style>
<rect x="-76.6" y="219.6" transform="matrix(-0.7071 0.7071 -0.7071 -0.7071 163.1402 401.6332)" class="st0" width="150" height="30"/>
<rect x="-76.6" y="263.1" transform="matrix(-0.7071 0.7071 -0.7071 -0.7071 193.9142 475.9366)" class="st0" width="150" height="30"/>
<rect x="-76.7" y="306.5" transform="matrix(-0.7071 0.7071 -0.7071 -0.7071 224.4886 550.0981)" class="st1" width="150" height="30"/>
<rect x="-76.6" y="350" transform="matrix(-0.7071 0.7071 -0.7071 -0.7071 255.3477 624.2363)" class="st1" width="150" height="30"/>
<rect x="-124" y="181.6" transform="matrix(-0.7071 0.7071 -0.7071 -0.7071 -4.6378 515.2076)" class="st1" width="30" height="150"/>
<rect x="-124.1" y="225" transform="matrix(-0.7071 0.7071 -0.7071 -0.7071 25.8741 589.1973)" class="st1" width="30" height="150"/>
<rect x="-123.9" y="268.2" transform="matrix(-0.7071 0.7071 -0.7071 -0.7071 56.7919 662.9722)" class="st1" width="30" height="150"/>
<rect x="-124.1" y="311.6" transform="matrix(-0.7071 0.7071 -0.7071 -0.7071 87.162 737.1622)" class="st1" width="30" height="150"/>
<rect x="-76.6" y="393.5" transform="matrix(-0.7071 0.7071 -0.7071 -0.7071 286.1217 698.5392)" class="st1" width="150" height="30"/>
<rect x="-76.7" y="436.9" transform="matrix(-0.7071 0.7071 -0.7071 -0.7071 316.6958 772.7013)" class="st1" width="150" height="30"/>
<rect x="-76.6" y="480.4" transform="matrix(-0.7071 0.7071 -0.7071 -0.7071 347.5405 846.8339)" class="st1" width="150" height="30"/>
<rect x="-76.6" y="523.9" transform="matrix(-0.7071 0.7071 -0.7071 -0.7071 378.3288 921.1427)" class="st1" width="150" height="30"/>
<rect x="-124.1" y="355.1" transform="matrix(-0.7071 0.7071 -0.7071 -0.7071 117.8736 811.2935)" class="st1" width="30" height="150"/>
<rect x="-124" y="398.4" transform="matrix(-0.7071 0.7071 -0.7071 -0.7071 148.65 885.2681)" class="st1" width="30" height="150"/>
<rect x="-124.1" y="441.7" transform="matrix(-0.7071 0.7071 -0.7071 -0.7071 179.1618 959.2578)" class="st1" width="30" height="150"/>
<rect x="-124" y="485.1" transform="matrix(-0.7071 0.7071 -0.7071 -0.7071 209.9382 1033.2327)" class="st1" width="30" height="150"/>
</svg>
