<?xml version="1.0" encoding="utf-8"?>
<!-- Generator: Adobe Illustrator 19.0.0, SVG Export Plug-In . SVG Version: 6.00 Build 0)  -->
<svg version="1.1" id="Layer_1" xmlns="http://www.w3.org/2000/svg" xmlns:xlink="http://www.w3.org/1999/xlink" x="0px" y="0px"
	 viewBox="-180 166.7 249.3 461.3" style="enable-background:new -180 166.7 249.3 461.3;" xml:space="preserve">
<style type="text/css">
	.st0{fill:#F8D911;stroke:#000000;stroke-miterlimit:9.9999;}
	.st1{fill:#FFFFFF;stroke:#000000;stroke-miterlimit:9.9999;}
</style>
<rect x="-124.6" y="160.1" transform="matrix(-0.7071 0.7071 -0.7071 -0.7071 -20.8106 478.8878)" class="st0" width="30" height="150"/>
<rect x="-124.6" y="203.6" transform="matrix(-0.7071 0.7071 -0.7071 -0.7071 9.9771 553.1135)" class="st1" width="30" height="150"/>
<rect x="-124.6" y="247" transform="matrix(-0.7071 0.7071 -0.7071 -0.7071 40.594 627.2684)" class="st0" width="30" height="150"/>
<rect x="-124.6" y="290.5" transform="matrix(-0.7071 0.7071 -0.7071 -0.7071 71.3958 701.4941)" class="st1" width="30" height="150"/>
<rect x="-77.2" y="242.1" transform="matrix(-0.7071 0.7071 -0.7071 -0.7071 178.1201 440.4392)" class="st1" width="150" height="30"/>
<rect x="-77.2" y="285.4" transform="matrix(-0.7071 0.7071 -0.7071 -0.7071 208.6729 514.4274)" class="st1" width="150" height="30"/>
<rect x="-77.2" y="328.8" transform="matrix(-0.7071 0.7071 -0.7071 -0.7071 239.3965 588.472)" class="st1" width="150" height="30"/>
<rect x="-77.2" y="372.1" transform="matrix(-0.7071 0.7071 -0.7071 -0.7071 269.9493 662.4601)" class="st1" width="150" height="30"/>
<rect x="-124.6" y="334" transform="matrix(-0.7071 0.7071 -0.7071 -0.7071 102.1836 775.7199)" class="st0" width="30" height="150"/>
<rect x="-124.6" y="377.4" transform="matrix(-0.7071 0.7071 -0.7071 -0.7071 132.8007 849.8748)" class="st1" width="30" height="150"/>
<rect x="-124.6" y="420.9" transform="matrix(-0.7071 0.7071 -0.7071 -0.7071 163.5882 924.1003)" class="st0" width="30" height="150"/>
<rect x="-124.6" y="464.4" transform="matrix(-0.7071 0.7071 -0.7071 -0.7071 194.39 998.3261)" class="st1" width="30" height="150"/>
<rect x="-77.2" y="415.5" transform="matrix(-0.7071 0.7071 -0.7071 -0.7071 300.673 736.5188)" class="st1" width="150" height="30"/>
<rect x="-77.2" y="458.9" transform="matrix(-0.7071 0.7071 -0.7071 -0.7071 331.3966 810.5635)" class="st1" width="150" height="30"/>
<rect x="-77.2" y="502.2" transform="matrix(-0.7071 0.7071 -0.7071 -0.7071 361.9494 884.5518)" class="st1" width="150" height="30"/>
<rect x="-77.2" y="545.6" transform="matrix(-0.7071 0.7071 -0.7071 -0.7071 392.6729 958.5964)" class="st1" width="150" height="30"/>
</svg>
