<?xml version="1.0" encoding="utf-8"?>
<!-- Generator: Adobe Illustrator 19.0.0, SVG Export Plug-In . SVG Version: 6.00 Build 0)  -->
<svg version="1.1" id="Layer_1" xmlns="http://www.w3.org/2000/svg" xmlns:xlink="http://www.w3.org/1999/xlink" x="0px" y="0px"
	 viewBox="-180 166.7 249.3 461.3" style="enable-background:new -180 166.7 249.3 461.3;" xml:space="preserve">
<style type="text/css">
	.st0{fill:#097BB6;stroke:#000000;stroke-miterlimit:9.9998;}
	.st1{fill:#FFFFFF;stroke:#000000;stroke-miterlimit:9.9998;}
</style>
<rect x="-77.2" y="220.1" transform="matrix(-0.7071 0.7071 -0.7071 -0.7071 162.4671 402.9323)" class="st0" width="150" height="30"/>
<rect x="-77.2" y="263.6" transform="matrix(-0.7071 0.7071 -0.7071 -0.7071 193.256 477.2056)" class="st1" width="150" height="30"/>
<rect x="-77.2" y="307" transform="matrix(-0.7071 0.7071 -0.7071 -0.7071 223.8741 551.2665)" class="st0" width="150" height="30"/>
<rect x="-77.2" y="350.5" transform="matrix(-0.7071 0.7071 -0.7071 -0.7071 254.6731 625.5353)" class="st1" width="150" height="30"/>
<rect x="-124.6" y="182.1" transform="matrix(-0.7071 0.7071 -0.7071 -0.7071 -5.2766 516.4651)" class="st1" width="30" height="150"/>
<rect x="-124.6" y="225.4" transform="matrix(-0.7071 0.7071 -0.7071 -0.7071 25.2744 590.3505)" class="st1" width="30" height="150"/>
<rect x="-124.5" y="268.8" transform="matrix(-0.7071 0.7071 -0.7071 -0.7071 56.2123 664.2877)" class="st1" width="30" height="150"/>
<rect x="-124.6" y="312.1" transform="matrix(-0.7071 0.7071 -0.7071 -0.7071 86.5511 738.3442)" class="st1" width="30" height="150"/>
<rect x="-77.2" y="394" transform="matrix(-0.7071 0.7071 -0.7071 -0.7071 285.4617 699.8084)" class="st0" width="150" height="30"/>
<rect x="-77.2" y="437.4" transform="matrix(-0.7071 0.7071 -0.7071 -0.7071 316.08 773.8696)" class="st1" width="150" height="30"/>
<rect x="-77.2" y="480.9" transform="matrix(-0.7071 0.7071 -0.7071 -0.7071 346.8688 848.1428)" class="st0" width="150" height="30"/>
<rect x="-77.2" y="524.4" transform="matrix(-0.7071 0.7071 -0.7071 -0.7071 377.6676 922.4118)" class="st1" width="150" height="30"/>
<rect x="-124.6" y="355.5" transform="matrix(-0.7071 0.7071 -0.7071 -0.7071 117.2729 812.4419)" class="st1" width="30" height="150"/>
<rect x="-124.6" y="398.9" transform="matrix(-0.7071 0.7071 -0.7071 -0.7071 147.9986 886.5496)" class="st1" width="30" height="150"/>
<rect x="-124.6" y="442.2" transform="matrix(-0.7071 0.7071 -0.7071 -0.7071 178.5495 960.4352)" class="st1" width="30" height="150"/>
<rect x="-124.6" y="485.6" transform="matrix(-0.7071 0.7071 -0.7071 -0.7071 209.2754 1034.543)" class="st1" width="30" height="150"/>
</svg>
