<?xml version="1.0" encoding="utf-8"?>
<!-- Generator: Adobe Illustrator 19.0.0, SVG Export Plug-In . SVG Version: 6.00 Build 0)  -->
<svg version="1.1" id="Layer_1" xmlns="http://www.w3.org/2000/svg" xmlns:xlink="http://www.w3.org/1999/xlink" x="0px" y="0px"
	 viewBox="-180 166.7 249.3 461.3" style="enable-background:new -180 166.7 249.3 461.3;" xml:space="preserve">
<style type="text/css">
	.st0{fill:#525660;stroke:#000000;stroke-miterlimit:9.9998;}
	.st1{fill:#CCA056;stroke:#000000;stroke-miterlimit:9.9998;}
</style>
<rect x="-76.6" y="219.6" transform="matrix(-0.7071 0.7071 -0.7071 -0.7071 163.1685 401.6321)" class="st0" width="150" height="30"/>
<rect x="-76.6" y="263.1" transform="matrix(-0.7071 0.7071 -0.7071 -0.7071 193.8974 475.9505)" class="st1" width="150" height="30"/>
<rect x="-76.6" y="306.5" transform="matrix(-0.7071 0.7071 -0.7071 -0.7071 224.5394 549.9982)" class="st0" width="150" height="30"/>
<rect x="-76.6" y="350" transform="matrix(-0.7071 0.7071 -0.7071 -0.7071 255.3774 624.2368)" class="st1" width="150" height="30"/>
<rect x="-124" y="181.7" transform="matrix(-0.7071 0.7071 -0.7071 -0.7071 -4.5147 515.2843)" class="st1" width="30" height="150"/>
<rect x="-124.1" y="224.9" transform="matrix(-0.7071 0.7071 -0.7071 -0.7071 25.8244 589.1273)" class="st1" width="30" height="150"/>
<rect x="-123.9" y="268.3" transform="matrix(-0.7071 0.7071 -0.7071 -0.7071 56.9135 663.0732)" class="st1" width="30" height="150"/>
<rect x="-124.1" y="311.7" transform="matrix(-0.7071 0.7071 -0.7071 -0.7071 87.1523 737.2158)" class="st1" width="30" height="150"/>
<rect x="-76.6" y="393.5" transform="matrix(-0.7071 0.7071 -0.7071 -0.7071 286.107 698.5547)" class="st0" width="150" height="30"/>
<rect x="-76.6" y="436.9" transform="matrix(-0.7071 0.7071 -0.7071 -0.7071 316.748 772.6028)" class="st1" width="150" height="30"/>
<rect x="-76.6" y="480.4" transform="matrix(-0.7071 0.7071 -0.7071 -0.7071 347.5773 846.821)" class="st0" width="150" height="30"/>
<rect x="-76.6" y="523.9" transform="matrix(-0.7071 0.7071 -0.7071 -0.7071 378.3152 921.1595)" class="st1" width="150" height="30"/>
<rect x="-124.1" y="355" transform="matrix(-0.7071 0.7071 -0.7071 -0.7071 117.8201 811.2292)" class="st1" width="30" height="150"/>
<rect x="-124" y="398.4" transform="matrix(-0.7071 0.7071 -0.7071 -0.7071 148.6391 885.2628)" class="st1" width="30" height="150"/>
<rect x="-124" y="441.7" transform="matrix(-0.7071 0.7071 -0.7071 -0.7071 179.2196 959.1469)" class="st1" width="30" height="150"/>
<rect x="-124" y="485.1" transform="matrix(-0.7071 0.7071 -0.7071 -0.7071 209.9673 1033.21)" class="st1" width="30" height="150"/>
</svg>
