<?xml version="1.0" encoding="utf-8"?>
<!-- Generator: Adobe Illustrator 19.0.0, SVG Export Plug-In . SVG Version: 6.00 Build 0)  -->
<svg version="1.1" id="Layer_1" xmlns="http://www.w3.org/2000/svg" xmlns:xlink="http://www.w3.org/1999/xlink" x="0px" y="0px"
	 viewBox="-180 166.7 249.3 461.3" style="enable-background:new -180 166.7 249.3 461.3;" xml:space="preserve">
<style type="text/css">
	.st0{fill:#3F6D46;stroke:#000000;stroke-miterlimit:9.9998;}
	.st1{fill:#FFFFFF;stroke:#000000;stroke-miterlimit:9.9998;}
</style>
<rect x="-124" y="159.6" transform="matrix(0.7071 -0.7071 0.7071 0.7071 -197.8234 -8.3962)" class="st0" width="30" height="150"/>
<rect x="-124.1" y="203.1" transform="matrix(0.7071 -0.7071 0.7071 0.7071 -228.5654 4.3251)" class="st0" width="30" height="150"/>
<rect x="-124" y="246.5" transform="matrix(0.7071 -0.7071 0.7071 0.7071 -259.2952 17.0762)" class="st1" width="30" height="150"/>
<rect x="-124" y="290" transform="matrix(0.7071 -0.7071 0.7071 0.7071 -290.0287 29.7977)" class="st1" width="30" height="150"/>
<rect x="-76.7" y="241.6" transform="matrix(0.7071 -0.7071 0.7071 0.7071 -181.9038 73.9534)" class="st1" width="150" height="30"/>
<rect x="-76.6" y="284.9" transform="matrix(0.7071 -0.7071 0.7071 0.7071 -212.559 86.6773)" class="st1" width="150" height="30"/>
<rect x="-76.7" y="328.2" transform="matrix(0.7071 -0.7071 0.7071 0.7071 -243.1972 99.3514)" class="st1" width="150" height="30"/>
<rect x="-76.6" y="371.6" transform="matrix(0.7071 -0.7071 0.7071 0.7071 -273.8817 112.0873)" class="st1" width="150" height="30"/>
<rect x="-124.1" y="333.5" transform="matrix(0.7071 -0.7071 0.7071 0.7071 -320.7708 42.5193)" class="st0" width="30" height="150"/>
<rect x="-124" y="376.9" transform="matrix(0.7071 -0.7071 0.7071 0.7071 -351.5006 55.27)" class="st0" width="30" height="150"/>
<rect x="-124" y="420.4" transform="matrix(0.7071 -0.7071 0.7071 0.7071 -382.2425 67.9916)" class="st1" width="30" height="150"/>
<rect x="-124.1" y="463.9" transform="matrix(0.7071 -0.7071 0.7071 0.7071 -412.9763 80.7131)" class="st1" width="30" height="150"/>
<rect x="-76.6" y="415" transform="matrix(0.7071 -0.7071 0.7071 0.7071 -304.549 124.7818)" class="st1" width="150" height="30"/>
<rect x="-76.7" y="458.4" transform="matrix(0.7071 -0.7071 0.7071 0.7071 -335.2164 137.4682)" class="st1" width="150" height="30"/>
<rect x="-76.6" y="501.7" transform="matrix(0.7071 -0.7071 0.7071 0.7071 -365.8717 150.1919)" class="st1" width="150" height="30"/>
<rect x="-76.7" y="545.1" transform="matrix(0.7071 -0.7071 0.7071 0.7071 -396.5391 162.8783)" class="st1" width="150" height="30"/>
</svg>
