<?xml version="1.0" encoding="utf-8"?>
<!-- Generator: Adobe Illustrator 24.0.1, SVG Export Plug-In . SVG Version: 6.00 Build 0)  -->
<svg version="1.1" id="Layer_1" xmlns="http://www.w3.org/2000/svg" xmlns:xlink="http://www.w3.org/1999/xlink" x="0px" y="0px"
	 viewBox="0 0 249.3 461.27" style="enable-background:new 0 0 249.3 461.27;" xml:space="preserve">
<style type="text/css">
	.st0{fill:#F8D917;stroke:#FFFFFF;stroke-miterlimit:10;}
</style>
<rect x="102.84" y="53.4" transform="matrix(0.7071 -0.7071 0.7071 0.7071 3.7177 145.7842)" class="st0" width="150" height="30"/>
<rect x="102.84" y="96.87" transform="matrix(0.7071 -0.7071 0.7071 0.7071 -27.018 158.5153)" class="st0" width="150" height="30"/>
<rect x="102.84" y="140.34" transform="matrix(0.7071 -0.7071 0.7071 0.7071 -57.7537 171.2465)" class="st0" width="150" height="30"/>
<rect x="102.84" y="183.8" transform="matrix(0.7071 -0.7071 0.7071 0.7071 -88.4894 183.9776)" class="st0" width="150" height="30"/>
<rect x="-4.56" y="75.35" transform="matrix(-0.7071 -0.7071 0.7071 -0.7071 56.3712 204.046)" class="st0" width="150" height="30"/>
<rect x="-4.56" y="118.71" transform="matrix(-0.7071 -0.7071 0.7071 -0.7071 25.708 278.0733)" class="st0" width="150" height="30"/>
<rect x="-4.56" y="162.08" transform="matrix(-0.7071 -0.7071 0.7071 -0.7071 -4.9551 352.1006)" class="st0" width="150" height="30"/>
<rect x="-4.56" y="205.44" transform="matrix(-0.7071 -0.7071 0.7071 -0.7071 -35.6182 426.1278)" class="st0" width="150" height="30"/>
<rect x="102.84" y="227.27" transform="matrix(0.7071 -0.7071 0.7071 0.7071 -119.2251 196.7088)" class="st0" width="150" height="30"/>
<rect x="102.84" y="270.74" transform="matrix(0.7071 -0.7071 0.7071 0.7071 -149.9608 209.4399)" class="st0" width="150" height="30"/>
<rect x="102.84" y="314.21" transform="matrix(0.7071 -0.7071 0.7071 0.7071 -180.6964 222.171)" class="st0" width="150" height="30"/>
<rect x="102.84" y="357.67" transform="matrix(0.7071 -0.7071 0.7071 0.7071 -211.4321 234.9022)" class="st0" width="150" height="30"/>
<rect x="-4.56" y="248.8" transform="matrix(-0.7071 -0.7071 0.7071 -0.7071 -66.2813 500.1551)" class="st0" width="150" height="30"/>
<rect x="-4.56" y="292.17" transform="matrix(-0.7071 -0.7071 0.7071 -0.7071 -96.9445 574.1824)" class="st0" width="150" height="30"/>
<rect x="-4.56" y="335.53" transform="matrix(-0.7071 -0.7071 0.7071 -0.7071 -127.6076 648.2097)" class="st0" width="150" height="30"/>
<rect x="-4.56" y="378.9" transform="matrix(-0.7071 -0.7071 0.7071 -0.7071 -158.2707 722.2369)" class="st0" width="150" height="30"/>
</svg>
