<?xml version="1.0" encoding="utf-8"?>
<!-- Generator: Adobe Illustrator 19.0.0, SVG Export Plug-In . SVG Version: 6.00 Build 0)  -->
<svg version="1.1" id="Layer_1" xmlns="http://www.w3.org/2000/svg" xmlns:xlink="http://www.w3.org/1999/xlink" x="0px" y="0px"
	 viewBox="0 0 359.7 370.6" style="enable-background:new 0 0 359.7 370.6;" xml:space="preserve">
<style type="text/css">
	.st0{fill:#343A40;stroke:#FEC912;stroke-width:6;stroke-miterlimit:10;}
	.st1{fill:#FFCA13;}
	.st2{fill:none;}
	.st3{fill:#FFCA12;}
</style>
<g id="XMLID_110_">
	<circle id="XMLID_1_" class="st0" cx="179.8" cy="182.1" r="168.2"/>
	<g id="XMLID_3_">
		
			<image style="overflow:visible;opacity:0.65;enable-background:new    ;" width="1158" height="367" id="XMLID_19_" xlink:href="6033E2A5.png"  transform="matrix(0.236 0 0 0.2351 43.1252 125.0393)">
		</image>
		<g id="XMLID_4_">
			<g id="XMLID_5_">
				<path id="XMLID_18_" class="st1" d="M124.8,163c0-0.4-0.3-0.8-0.9-1.2c-0.5-0.2-1.1-0.4-1.9-0.4h0c-0.8,0-1.7,0.2-2.6,0.6
					c-0.9,0.4-1.8,0.9-2.5,1.5c-0.8,0.7-1.6,1.6-2.3,2.6c-0.7,1-1,2-1,2.9c0,0.2,0,0.4,0,0.5c-0.6,0.6-1.3,1.3-2,2
					c-1.1,1-2.2,2-3.2,2.9c-1.1,0.9-2,1.6-2.9,2.2c-0.9,0.6-1.6,0.8-2.1,0.8h0c-0.4,0-0.6-0.2-0.8-0.6c-0.2-0.4-0.1-1.2,0.2-2.5
					c0.3-1.3,0.7-2.7,1.2-4.4s1.1-3.3,1.9-4.9c0.2-0.4,0.3-0.7,0.5-0.9s0.2-0.5,0.3-0.8c0.2-0.5,0.1-0.9-0.2-1.3
					c-0.3-0.4-0.7-0.7-1.1-0.7c-0.2,0-0.4,0.1-0.7,0.3c-0.2,0.2-0.6,0.7-1,1.4c-0.2,0.4-0.6,0.9-1,1.5c-0.4,0.6-0.8,1.3-1.4,2
					c-0.5,0.7-1.1,1.5-1.7,2.3c-0.6,0.8-1.3,1.6-1.9,2.3c-1.6,1.8-2.9,3.1-3.9,4c-0.9,0.9-1.8,1.3-2.5,1.3c-0.4,0-0.7-0.3-0.8-0.8
					s0-1.4,0.5-2.6c0.5-1.4,0.8-2.5,1.2-3.3c0.3-0.8,0.6-1.4,0.8-1.8c0.2-0.3,0.4-0.6,0.6-0.9c0.2-0.3,0.4-0.5,0.6-0.8
					c0.1-0.1,0.2-0.4,0.4-0.7c0.2-0.3,0.4-0.6,0.6-0.9c0.2-0.3,0.4-0.7,0.5-0.9s0.2-0.5,0.2-0.7c0-0.5-0.2-0.8-0.5-1.1
					c-0.3-0.3-0.7-0.4-1.1-0.4c-0.4,0-0.8,0.3-1.1,0.8c-0.2,0.3-0.5,0.7-0.8,1.3c-0.3,0.6-0.7,1.3-1,2.1c-0.3,0.6-0.6,1.3-0.9,2
					c-0.1,0.1-0.3,0.2-0.5,0.4c-0.4,0.3-1.1,0.9-2.1,1.8c-1.1,0.9-2.3,1.8-3.8,2.8s-3,1.8-4.7,2.6c-1.7,0.8-3.4,1.1-5,1.1
					c-1.3,0-2.3-0.5-3.1-1.4s-1.1-2.3-1.1-4.1c0-1.5,0.2-3,0.5-4.5s0.8-3,1.3-4.5c0.5-1.5,1.2-2.9,1.9-4.2c0.7-1.4,1.5-2.6,2.2-3.8
					c0.6-0.9,1.3-1.8,2.1-2.6c0.8-0.8,1.6-1.6,2.4-2.2c0.8-0.7,1.6-1.2,2.5-1.6c0.8-0.4,1.6-0.6,2.3-0.6c0.5,0,0.9,0.1,1.1,0.4
					c0.2,0.2,0.3,0.5,0.3,0.7c0,0.3,0,0.5-0.1,0.6c0,0.1-0.1,0.3-0.2,0.6c-0.1,0.2-0.1,0.4-0.1,0.6c0,0.2,0.3,0.3,0.7,0.2
					c0.2,0,0.4-0.2,0.7-0.3c0.3-0.2,0.6-0.4,0.9-0.7c0.3-0.3,0.6-0.7,0.8-1.1c0.2-0.4,0.4-0.9,0.4-1.5c0-1.2-0.4-2.1-1.2-2.6
					s-1.6-0.8-2.4-0.8h-0.1c-0.7,0-1.5,0.1-2.3,0.3c-0.8,0.2-1.7,0.6-2.7,1.2c-2.2,1.2-4.3,2.8-6.1,4.9c-1.9,2.1-3.5,4.3-4.8,6.7
					c-1.4,2.4-2.4,5-3.2,7.6c-0.8,2.6-1.2,5-1.2,7.3c0,1.2,0.1,2.4,0.3,3.6c0.2,1.1,0.6,2.2,1.1,3.1c0.5,0.9,1.2,1.6,2,2.2
					c0.8,0.5,1.8,0.8,3,0.8c1.6,0,3.2-0.3,4.8-0.9c1.6-0.6,3.3-1.5,5-2.6c2.4-1.5,4.4-3,5.9-4.6c0.2-0.2,0.4-0.4,0.5-0.6
					c-0.6,1.5-0.9,2.6-1.1,3.4c-0.2,0.9-0.3,1.6-0.3,2c0,0.8,0.2,1.6,0.5,2.1c0.3,0.6,0.7,0.9,1.1,0.9c0.4,0,0.7-0.1,1-0.2
					c0.3-0.1,0.8-0.3,1.3-0.6c0.6-0.3,1.3-0.8,2.1-1.4c0.8-0.6,1.6-1.3,2.4-2.1c0.8-0.8,1.7-1.6,2.5-2.5c0.9-0.9,1.6-1.8,2.4-2.8
					c0.2-0.3,0.4-0.4,0.5-0.3s0.1,0.2,0,0.5c-0.1,0.5-0.3,1.1-0.6,1.9c-0.2,0.8-0.4,1.7-0.6,2.5c-0.4,1.8-0.4,3.1,0,3.9
					c0.4,0.8,0.9,1.2,1.5,1.2c0.3,0,0.8-0.1,1.3-0.2c0.6-0.1,1.3-0.4,2.1-0.9c0.9-0.5,2.3-1.5,4.1-2.9c1.7-1.3,3.4-3.1,5.3-5.4
					c0,0,0,0,0,0c0.2,0.4,0.4,0.9,0.8,1.4c0.4,0.6,0.7,1.1,1.1,1.6c0.3,0.5,0.5,0.9,0.7,1.4c0.2,0.5,0.3,0.9,0.3,1.2
					c0,0.3-0.1,0.5-0.4,0.7c-0.3,0.2-0.6,0.4-0.9,0.4c-0.4,0.1-0.7,0.1-0.9,0c-0.2,0-0.5-0.1-0.8-0.2c-0.3-0.2-0.6-0.2-1.1,0
					c-0.5,0.2-1,0.6-1.6,1.2c-0.2,0.2-0.3,0.3-0.4,0.5c-0.1,0.2-0.1,0.3-0.2,0.5c0.1,0.4,0.3,0.7,0.8,1c0.5,0.2,0.9,0.3,1.3,0.3
					c0.5,0,1.1-0.1,1.8-0.4c0.6-0.2,1.2-0.5,1.9-0.9c0.7-0.4,1.3-0.7,1.7-1.1c0.4-0.3,0.7-0.7,0.9-1.1c0.3-0.5,0.4-1,0.4-1.5
					c0-0.7-0.2-1.4-0.6-2.2c-0.4-0.8-0.9-1.6-1.4-2.3c-0.4-0.6-0.8-1.1-1-1.6c-0.2-0.5-0.3-1-0.3-1.5c0-0.5,0.2-1.1,0.6-1.6
					c0.4-0.5,0.9-1,1.6-1.5s1.4-0.8,2.1-1.1c0.8-0.3,1.6-0.4,2.3-0.4c0.5,0,0.9-0.1,1.2-0.2C124.6,163.6,124.8,163.3,124.8,163z"/>
				<path id="XMLID_17_" class="st1" d="M129.1,173.2c0.2-0.7,0.4-1.4,0.7-2.2s0.5-1.5,0.8-2.3c0.3-0.8,0.5-1.4,0.8-2
					c0.1-0.3,0.2-0.4,0.3-0.5c0.1,0,0.3-0.1,0.6-0.2c2.6-0.3,4.7-0.6,6.2-0.9c1.6-0.3,2.7-0.5,3.4-0.7c0.2,0,0.4-0.1,0.6-0.3
					c0.2-0.1,0.3-0.3,0.3-0.4c0-0.1,0-0.2,0-0.3s-0.2-0.2-0.5-0.2c-0.8,0-1.6,0-2.5,0c-0.9,0-1.8,0.1-2.6,0.1
					c-0.8,0-1.6,0.1-2.3,0.1c-0.7,0-1.3,0.1-1.7,0.1c-0.2,0-0.4,0-0.5,0c-0.1,0-0.1-0.2,0-0.4c0.1-0.2,0.4-0.9,0.8-2s1-2.4,1.7-3.8
					c0.4-0.7,0.4-1.3,0-1.8c-0.2-0.4-0.5-0.6-0.9-0.6c-0.4,0-0.8,0.2-1.2,0.5c-0.4,0.4-0.7,0.7-0.9,1.1c-0.1,0.3-0.3,0.8-0.6,1.4
					c-0.2,0.7-0.5,1.4-0.8,2.1c-0.2,0.7-0.5,1.4-0.7,2c-0.2,0.6-0.4,1-0.5,1.2c-0.1,0.2-0.2,0.3-0.3,0.4c-0.1,0.1-0.3,0.2-0.6,0.3
					c-0.5,0.1-1,0.1-1.5,0.2c-0.5,0.1-0.9,0.1-1.3,0.2c-0.4,0.1-0.7,0.2-0.9,0.3s-0.4,0.3-0.6,0.5c-0.2,0.2-0.3,0.4-0.3,0.6
					c0,0.2,0,0.5,0.2,0.6c0.3,0.2,0.7,0.4,1.1,0.3c0.3,0,0.7-0.1,1.2-0.1c0.5,0,0.9-0.1,1.2-0.1c0.4,0,0.5,0.1,0.4,0.5
					c-0.1,0.3-0.3,0.8-0.6,1.5c-0.3,0.7-0.5,1.5-0.8,2.4c-0.3,0.9-0.6,1.7-0.8,2.5c-0.2,0.8-0.4,1.4-0.6,1.7c-0.4,1.1-0.6,2-0.6,2.6
					c0,0.5,0.1,0.8,0.3,1.2s0.5,0.6,0.8,0.8c0.3,0.2,0.6,0.4,1,0.5c0.3,0.1,0.7,0.2,0.9,0.2c0.2,0,0.5,0,0.9,0
					c0.3,0,0.7-0.1,1.1-0.3c2.2-0.8,3.9-1.7,5.1-2.6c1.2-0.9,2.1-1.6,2.5-2c0.3-0.3,0.4-0.6,0.3-0.8c-0.1-0.3-0.3-0.3-0.7,0
					c-0.3,0.2-0.8,0.5-1.3,0.8c-0.5,0.3-1.1,0.7-1.8,1c-0.7,0.3-1.3,0.6-2,0.8c-0.7,0.2-1.3,0.4-1.9,0.4h0c-1.3,0-1.8-0.9-1.5-2.6
					C128.8,174.5,128.9,173.9,129.1,173.2z"/>
				<path id="XMLID_14_" class="st1" d="M151.4,162.9c-0.2-0.1-0.3-0.2-0.3-0.4s0-0.3,0-0.4c0-0.3-0.1-0.7-0.3-0.9
					c-0.2-0.3-0.6-0.4-1.1-0.4c-0.7,0-1.2,0.3-1.6,0.8c-0.2,0.2-0.3,0.3-0.5,0.4c-0.2,0.1-0.4,0.2-0.7,0.2c-0.6,0-1.1,0.2-1.3,0.5
					c-0.2,0.2-0.4,0.4-0.5,0.6s-0.2,0.5-0.2,0.9c0,0.3-0.1,0.6-0.2,0.8c-0.1,0.2-0.3,0.5-0.5,0.8c-0.1,0.2-0.4,0.5-0.7,0.9
					c-0.3,0.4-0.6,0.9-1,1.4c-0.3,0.5-0.7,1.1-1,1.6c-0.3,0.5-0.6,1-0.8,1.4c-0.4,0.8-0.7,1.8-1,2.9s-0.5,2.1-0.5,3.1v0
					c0,0.5,0.1,0.9,0.3,1.3c0.2,0.4,0.4,0.8,0.7,1.1c0.3,0.3,0.6,0.6,0.9,0.8s0.7,0.3,1,0.3c1.3,0,2.7-0.4,4.3-1.3
					c1.6-0.8,3.2-2.2,4.7-4c0.4-0.5,0.8-1.1,1.2-1.7c0.4-0.6,0.7-1.3,0.9-1.9s0.4-1.2,0.6-1.8c0.1-0.5,0.2-1,0.2-1.4
					c0-1.5-0.3-2.6-0.8-3.5C152.7,164.1,152.1,163.4,151.4,162.9z M150.9,170.3c-0.3,0.8-0.6,1.5-1,2.3c-0.4,0.8-0.8,1.5-1.3,2.1
					c-0.5,0.7-1,1.2-1.4,1.6c-0.6,0.6-1.2,1-1.8,1.3c-0.6,0.2-1.1,0.4-1.6,0.4c-0.4,0-0.7-0.2-1-0.5c-0.3-0.3-0.4-0.7-0.4-1.3v0
					c0-0.8,0.1-1.6,0.5-2.6c0.3-0.9,0.7-1.8,1.2-2.7c0.5-0.9,1-1.7,1.5-2.5c0.5-0.8,1-1.4,1.4-1.9c0.5-0.6,0.9-1,1.3-1.3
					c0.3-0.3,0.7-0.4,1-0.4c0.5,0,0.8,0.1,1.1,0.3s0.5,0.5,0.6,0.8c0.1,0.3,0.2,0.7,0.3,1.1c0,0.4,0.1,0.8,0.1,1.2
					C151.3,168.8,151.2,169.5,150.9,170.3z"/>
				<path id="XMLID_13_" class="st1" d="M192.2,169.4c-2.4,3.1-4.4,5.2-6,6.6c-1.6,1.3-2.9,2-4,2c-0.8,0-1.3-0.4-1.5-1.1
					c-0.2-0.7-0.2-1.9,0.1-3.4c0.3-1.6,0.6-3.1,1.1-4.3c0.4-1.3,0.8-2.2,1.1-2.8c0.2-0.3,0.4-0.6,0.5-0.8c0.2-0.2,0.4-0.3,0.5-0.5
					c0.3-0.2,0.5-0.4,0.6-0.6c0.1-0.2,0.2-0.4,0.2-0.7c0-0.5-0.2-0.9-0.5-1.3s-0.7-0.6-1-0.6c-0.4,0-0.9,0.3-1.6,0.9
					c-0.1,0.1-0.4,0.4-0.8,0.8c-0.4,0.4-0.9,0.9-1.5,1.6c-0.6,0.6-1.2,1.3-1.9,2c-0.7,0.7-1.4,1.5-2.1,2.3c-0.7,0.8-1.4,1.6-2.1,2.3
					c-0.7,0.8-1.4,1.5-1.9,2.1c-0.5,0.6-0.9,0.8-1.1,0.6c-0.1-0.1-0.2-0.5,0-1.1c0.1-0.2,0.3-0.8,0.6-1.6c0.3-0.8,0.6-1.8,1-2.8
					s0.7-1.9,1-2.8c0.3-0.9,0.6-1.5,0.7-1.8c0.4-0.9,0.4-1.6,0.1-2.2c-0.3-0.5-0.7-0.8-1-0.8h0c-0.4,0-0.9,0.3-1.6,1
					c-0.4,0.4-0.8,0.7-1.2,1.1c-0.4,0.4-1,1-1.7,1.7c-1.4,1.3-2.7,2.8-4.1,4.4c-1.4,1.6-2.7,3.2-4,4.8c-0.3,0.4-0.6,0.5-0.7,0.3
					c-0.2-0.2-0.1-0.6,0.1-1.3c0.1-0.5,0.3-1.1,0.6-1.9c0.2-0.8,0.5-1.6,0.8-2.5c0.3-0.9,0.5-1.7,0.8-2.6c0.3-0.8,0.6-1.5,0.9-2
					c0.3-0.6,0.4-1.2,0.3-1.6c-0.1-0.5-0.4-0.9-0.8-1.3c-0.3-0.3-0.6-0.5-1-0.5c-0.3,0-0.5,0.1-0.7,0.3c-0.2,0.2-0.3,0.5-0.5,0.8
					c-0.1,0.3-0.3,0.7-0.3,1c-0.1,0.4-0.2,0.7-0.2,1c-0.2,0.9-0.4,1.5-0.4,1.9c-0.1,0.2-0.1,0.3-0.1,0.4c0,0.1,0,0.3-0.1,0.5
					c-0.3,1-0.6,2-0.9,3s-0.6,1.9-0.8,2.7c-0.2,0.8-0.4,1.6-0.6,2.2s-0.3,1.1-0.3,1.5c-0.1,1.2-0.1,2.1,0.2,2.7
					c0.3,0.6,0.6,0.9,1,0.9c0.2,0,0.5-0.1,0.8-0.4s0.6-0.6,1-1c0.2-0.3,0.6-0.7,1.1-1.3c0.5-0.6,1.1-1.3,1.7-2.1
					c0.6-0.8,1.3-1.5,2-2.4c0.7-0.8,1.3-1.6,2-2.3c0.6-0.7,1.2-1.3,1.6-1.8c0.5-0.5,0.8-0.8,1-1c0.5-0.5,0.8-0.6,1-0.5
					c0.2,0.1,0.2,0.6,0,1.3c-0.1,0.3-0.2,0.8-0.4,1.4c-0.2,0.6-0.4,1.2-0.6,1.9s-0.4,1.3-0.6,1.9c-0.2,0.6-0.3,1.1-0.4,1.4
					c-0.4,1.3-0.6,2.5-0.5,3.4s0.3,1.4,0.8,1.4c0.3,0,0.6-0.1,0.9-0.3c0.3-0.2,0.7-0.6,1.3-1.1c0.4-0.4,1-1,1.8-1.9
					c0.8-0.9,1.6-1.8,2.5-2.7c0.9-1,1.7-1.9,2.5-2.8c0.8-0.9,1.5-1.6,1.9-2.2c0.5-0.6,0.8-0.6,0.6,0c-0.2,0.7-0.4,1.4-0.6,2.3
					s-0.4,1.8-0.5,2.9c-0.1,1-0.1,1.9,0,2.7c0.1,0.8,0.3,1.4,0.6,1.9c0.3,0.5,0.7,0.9,1.1,1.2c0.4,0.3,0.9,0.4,1.4,0.4
					c0.6,0,1.4-0.2,2.3-0.5s1.8-0.9,2.8-1.7c1-0.8,2-1.7,3.1-2.9c1.1-1.2,2.2-2.7,3.2-4.3c0.5-0.8,0.7-1.4,0.6-1.7
					C192.9,168.9,192.6,169,192.2,169.4z"/>
				<path id="XMLID_9_" class="st1" d="M258.2,162.6c-0.2-0.3-0.5-0.6-0.8-0.9c-0.3-0.2-0.7-0.4-1.1-0.4h0c-0.5,0-1.1,0.1-1.9,0.4
					c-0.8,0.3-1.5,0.6-2.2,1c-0.4,0.2-0.8,0.5-1.2,0.8c-0.5,0.4-0.9,0.7-1.3,1.1c-0.4,0.4-0.8,0.7-1.2,1c-0.3,0.3-0.6,0.5-0.7,0.6
					c-0.6,0.6-0.8,0.6-0.5-0.2c0-0.2,0.2-0.6,0.4-1.1c0.2-0.6,0.5-1.2,0.8-2c0.3-0.8,0.6-1.5,1-2.4c0.3-0.8,0.7-1.6,0.9-2.3
					c0.9-2.1,1.6-3.7,2.2-5c0.6-1.3,0.9-2.1,1-2.6c0.2-0.7,0.3-1.3,0.2-1.7s-0.4-0.7-0.8-0.7c-0.3,0-0.7,0.1-1,0.3
					c-0.4,0.2-0.6,0.4-0.9,0.7c-0.5,0.4-0.8,0.9-0.8,1.4c-0.1,1-0.4,2-0.9,3.2c-0.2,0.5-0.5,1-0.8,1.7c-0.3,0.7-0.6,1.5-0.9,2.3
					c-0.3,0.8-0.7,1.7-1.1,2.7s-0.7,1.9-1.1,2.8c-0.4,1-0.8,2.2-1.3,3.6c-0.5,1.4-0.9,2.7-1.3,4c-0.1,0.3-0.2,0.5-0.2,0.8
					c-0.1,0.1-0.2,0.3-0.4,0.4c-0.8,1-1.6,1.8-2.4,2.7c-0.8,0.8-1.6,1.5-2.4,2c-0.8,0.5-1.4,0.8-2,0.8c-0.6,0-1.1-0.4-1.3-1.2
					c-0.2-0.8-0.3-1.8-0.3-2.9c0-1.5,0.2-3,0.7-4.6c0.5-1.5,1.1-3.2,1.9-4.9c0.1-0.3,0.2-0.5,0.2-0.8c0-0.2-0.2-0.5-0.6-0.7
					c-0.3-0.2-0.7-0.2-1,0c-0.2,0.2-0.4,0.1-0.5-0.1c-0.2-0.2-0.4-0.4-0.6-0.7c-0.2-0.2-0.5-0.4-0.8-0.4h0c-0.3,0-0.8,0.1-1.5,0.4
					c-0.7,0.2-1.7,0.9-2.8,1.8c-1.3,1.1-2.6,2.5-3.7,4c-0.2,0.3-0.5,0.6-0.7,1c-0.2,0-0.4,0.2-0.7,0.4c-0.4,0.3-1.1,0.9-2.1,1.8
					c-1.1,0.9-2.3,1.8-3.8,2.8c-1.4,1-3,1.8-4.7,2.6c-1.7,0.8-3.4,1.1-5,1.1c-1.3,0-2.3-0.5-3.1-1.4c-0.7-0.9-1.1-2.3-1.1-4.1
					c0-1.5,0.2-3,0.5-4.5c0.3-1.5,0.8-3,1.3-4.5c0.5-1.5,1.2-2.9,1.9-4.2c0.7-1.4,1.5-2.6,2.2-3.8c0.6-0.9,1.3-1.8,2.1-2.6
					c0.8-0.8,1.6-1.6,2.4-2.2c0.8-0.7,1.6-1.2,2.5-1.6c0.8-0.4,1.6-0.6,2.3-0.6c0.5,0,0.9,0.1,1.1,0.4c0.2,0.2,0.3,0.5,0.3,0.7
					s0,0.5-0.1,0.6c0,0.1-0.1,0.3-0.2,0.6c-0.1,0.2-0.1,0.4-0.1,0.6c0,0.2,0.3,0.3,0.7,0.2c0.2,0,0.4-0.2,0.7-0.3
					c0.3-0.2,0.6-0.4,0.9-0.7c0.3-0.3,0.6-0.7,0.8-1.1c0.2-0.4,0.4-0.9,0.4-1.5c0-1.2-0.4-2.1-1.2-2.6s-1.6-0.8-2.4-0.8h-0.1
					c-0.7,0-1.5,0.1-2.3,0.3c-0.8,0.2-1.7,0.6-2.7,1.2c-2.2,1.2-4.3,2.8-6.1,4.9c-1.9,2.1-3.5,4.3-4.8,6.7c-1.4,2.4-2.4,5-3.2,7.6
					c-0.8,2.6-1.2,5-1.2,7.3c0,1.2,0.1,2.4,0.3,3.6s0.6,2.2,1.1,3.1c0.5,0.9,1.2,1.6,2,2.2c0.8,0.5,1.8,0.8,3,0.8
					c1.6,0,3.2-0.3,4.8-0.9c1.6-0.6,3.3-1.5,5-2.6c2-1.2,3.6-2.5,5-3.7c-0.3,0.6-0.4,1.1-0.6,1.5c-0.2,0.9-0.4,1.6-0.4,2
					c0,0.5,0.1,0.9,0.3,1.2c0.2,0.3,0.4,0.6,0.7,0.8c0.2,0.2,0.5,0.3,0.8,0.4s0.4,0.1,0.5,0.1c0.9,0,1.9-0.5,3.1-1.6
					c0.4-0.3,0.8-0.7,1.3-1.2c0.5-0.5,1-1,1.6-1.6c0.5-0.5,1-1.1,1.4-1.6c0.4-0.5,0.7-0.9,0.9-1.1c0.3-0.3,0.4-0.2,0.4,0.1
					c0,0.3,0,0.7,0,1.4s0.1,1.2,0.1,1.8c0.1,1.1,0.5,2,1.1,2.7c0.6,0.7,1.3,1.1,1.9,1.1c0.7,0,1.5-0.3,2.5-0.9c1-0.6,2-1.3,3-2.2
					c0.6-0.5,1.1-1.1,1.7-1.7c-0.1,0.3-0.1,0.4-0.1,0.5c-0.1,0.3-0.1,0.5-0.1,0.7c0,0.2,0.1,0.4,0.3,0.6c0.2,0.2,0.3,0.7,0.4,1.2
					c0,0.4,0.2,0.7,0.6,1.2c0.4,0.4,0.9,0.6,1.4,0.6c0.5,0,1.2-0.2,2.1-0.5c0.9-0.3,1.8-0.7,2.6-1.2c0.5-0.3,1-0.7,1.6-1.2
					c0.6-0.5,1.3-1,1.9-1.7c0.6-0.6,1.3-1.3,1.9-1.9c0.6-0.7,1.2-1.4,1.6-2.1c0.8-1.1,1.4-2.3,2-3.6c0.6-1.2,0.9-2.5,0.9-3.8
					c0-0.2,0-0.6-0.2-0.9C258.5,163.2,258.4,162.9,258.2,162.6z M232.7,166.4c-0.1,0.4-0.2,0.7-0.3,0.9c-0.1,0.1-0.2,0.3-0.3,0.6
					c-0.1,0.3-0.3,0.6-0.5,1c-0.2,0.4-0.4,0.7-0.6,1.1c-0.2,0.4-0.4,0.7-0.5,0.9c-0.8,1.1-1.6,2-2.3,2.9s-1.3,1.5-1.7,1.9
					c-0.5,0.5-0.9,0.8-1.3,1.1c-0.4,0.3-0.7,0.4-0.9,0.4c-0.4,0-0.6-0.2-0.7-0.5c-0.1-0.3-0.1-0.8,0.1-1.3c0.2-0.9,0.8-2.2,1.5-3.8
					c0.8-1.6,1.8-3.1,3.1-4.6c1.5-1.8,2.6-2.7,3.3-2.7h0c0.4,0,0.6,0.1,0.8,0.3c0.2,0.2,0.3,0.5,0.3,0.8
					C232.8,165.7,232.8,166,232.7,166.4z M255.4,167.4c-0.4,0.9-0.8,1.8-1.4,2.8c-0.6,1-1.3,2-2,2.9c-0.8,1-1.6,1.8-2.4,2.4
					c-1.8,1.3-3.1,2-4,2c-0.3,0-0.5-0.1-0.8-0.3s-0.3-0.5-0.3-1.1v0c0-0.9,0.2-1.8,0.5-2.6s0.6-1.5,0.9-2c0.6-1,1.2-1.9,1.9-2.7
					c0.7-0.8,1.5-1.6,2.4-2.4c0.9-0.8,1.8-1.4,2.6-1.8c0.9-0.4,1.5-0.6,1.9-0.6c0.4,0,0.7,0.1,0.9,0.4c0.2,0.3,0.3,0.6,0.3,1
					C255.9,165.9,255.7,166.5,255.4,167.4z"/>
				<path id="XMLID_6_" class="st1" d="M291.7,170.2c-0.2-0.3-0.4-0.4-0.8,0c-0.8,0.8-1.7,1.7-2.8,2.7s-2.2,1.8-3.4,2.5
					c-1.2,0.8-2.4,1.4-3.6,1.9c-1.2,0.5-2.3,0.7-3.3,0.7c-0.8,0-1.4-0.3-1.9-0.8c-0.5-0.5-0.8-1.3-0.8-2.4c0-0.9,0.1-1.6,0.4-2.3
					c0.1-0.3,0.3-0.4,0.5-0.2c0.4,0.3,0.9,0.5,1.5,0.5c1.3,0,2.4-0.3,3.4-0.9c1-0.6,1.9-1.3,2.6-2.1c0.5-0.6,0.9-1.2,1.3-2.1
					c0.3-0.8,0.5-1.6,0.5-2.4s-0.2-1.4-0.6-1.8c-0.4-0.4-0.9-0.7-1.6-0.7c-0.4-0.1-0.6-0.3-0.6-0.5c0-0.2-0.1-0.5-0.3-0.7
					c-0.2-0.2-0.5-0.3-0.9-0.3c-0.5,0-1,0.2-1.6,0.6c-0.6,0.4-1.1,0.9-1.7,1.5c-0.6,0.6-1.1,1.1-1.6,1.7c-0.5,0.6-0.8,1.1-1.1,1.5
					c-0.8,1.2-1.5,2.4-2,3.7c-0.4,0.5-0.9,0.9-1.4,1.4c-1.1,1.1-2.3,2-3.4,2.9c-1.1,0.9-2.1,1.6-3.1,2.2c-0.9,0.6-1.7,0.8-2.1,0.8
					c-0.2,0-0.3,0-0.5-0.2c-0.1-0.1-0.2-0.3-0.3-0.6c-0.1-0.3-0.1-0.7,0-1.2c0-0.5,0.2-1.3,0.5-2.1c0.2-1,0.6-2.2,1.2-3.7
					c0.5-1.5,1.1-3.2,1.9-5c0.7-1.8,1.6-3.8,2.5-5.9c1-2.1,2-4.2,3.2-6.4c0.4-0.7,0.6-1.3,0.7-1.8c0.1-0.5-0.1-1.1-0.6-1.6
					c-0.2-0.2-0.4-0.3-0.8-0.3s-0.6,0.2-0.9,0.5c-0.2,0.2-0.4,0.6-0.8,1.2c-0.3,0.6-0.7,1.4-1.3,2.4c-0.5,1.1-1.1,2.4-1.9,4
					s-1.6,3.6-2.5,6c-1.7,4-2.8,7.3-3.4,9.7s-0.9,3.9-0.9,4.5v0c0,0.9,0.2,1.7,0.5,2.4c0.3,0.7,0.8,1,1.4,1c0.9,0,2.1-0.4,3.4-1.1
					c1.3-0.7,2.6-1.6,3.9-2.7c1.2-1,2.4-2,3.4-3c-0.1,0.6-0.2,1.2-0.2,1.7v0c0,1,0.1,1.8,0.4,2.4c0.3,0.6,0.6,1.1,1.1,1.5
					c0.4,0.4,0.9,0.7,1.5,0.8c0.5,0.2,1.1,0.2,1.6,0.2c1.2,0,2.4-0.2,3.8-0.7c1.4-0.5,2.7-1.1,4-1.9c1.3-0.8,2.5-1.7,3.7-2.7
					c1.2-1,2.2-2.1,3-3.2C291.6,171.1,291.8,170.5,291.7,170.2z M276.5,169.8c0.2-0.5,0.4-1.1,0.8-1.7c0.4-0.7,0.8-1.3,1.2-1.8
					c0.4-0.6,0.9-1.1,1.3-1.5c0.4-0.4,0.8-0.6,1.2-0.6s0.7,0.2,1,0.5c0.3,0.3,0.5,0.8,0.5,1.5c0,0.5-0.1,1-0.5,1.5
					c-0.3,0.5-0.7,0.9-1.2,1.3s-1,0.7-1.6,0.9c-0.6,0.2-1.2,0.3-1.9,0.3h0C276.6,170.3,276.3,170.1,276.5,169.8z"/>
			</g>
		</g>
	</g>
	<line id="XMLID_2_" class="st2" x1="185" y1="254.6" x2="185" y2="305"/>
	<line id="XMLID_20_" class="st2" x1="144.5" y1="254.6" x2="145.1" y2="254.6"/>
	<g id="XMLID_22_">
		<path id="XMLID_23_" class="st3" d="M50.6,116C50.6,116,50.6,116,50.6,116l-5.7,4c0,0,0,0,0,0l5.7,4c0,0,0,0,0,0H58c0,0,0,0,0,0
			v-8c0,0,0,0,0,0H50.6z"/>
		<path id="XMLID_42_" class="st3" d="M72.4,124C72.4,124,72.5,124,72.4,124l0-8c0,0,0,0,0,0h-8.6c0,0,0,0,0,0v8c0,0,0,0,0,0H72.4z"
			/>
		<path id="XMLID_44_" class="st3" d="M86.8,124C86.8,124,86.9,124,86.8,124l0-8c0,0,0,0,0,0h-8.6c0,0,0,0,0,0v8c0,0,0,0,0,0H86.8z"
			/>
		<path id="XMLID_45_" class="st3" d="M101.2,124C101.3,124,101.3,124,101.2,124l0-8c0,0,0,0,0,0h-8.6c0,0,0,0,0,0v8c0,0,0,0,0,0
			H101.2z"/>
		<path id="XMLID_46_" class="st3" d="M174.2,129.5C174.3,129.5,174.3,129.5,174.2,129.5l0-2.1c13.7,0,27.3,0,41,0
			c24.1,0,48.1,0,72.2,0c6.4,0.2,11.5,5.4,11.5,11.8l4.7,0c0,0,0,0,0,0c0-9-7.2-16.4-16.2-16.6c0,0,0,0,0,0c0,0-0.1,0-0.1,0
			c-0.1,0-0.2,0-0.3,0v0c-37.6,0-75.3,0-112.9,0v-4.7c37.7,0,75.5,0,113.2,0c11.6,0.2,21,9.6,21,21.3c0,0,0,0,0,0h0
			c0,16,0,31.9,0,47.9h4.7c0-16,0-31.9,0-47.9h0c0,0,0,0,0,0c0-14.4-11.7-26.1-26.1-26.1v0c-37.6,0-75.3,0-112.9,0v-2.6c0,0,0,0,0,0
			h-67.7c0,0,0,0,0,0v18.9c0,0,0,0,0,0H174.2z"/>
		<path id="XMLID_47_" class="st3" d="M85.7,203.6c37.9,0,75.9,0,113.8,0c0,0,0,0,0,0c29.2,0,58.5,0,87.7,0
			c9.2,0,16.6-7.4,16.6-16.6l-4.7,0c0,6.5-5.3,11.9-11.9,11.9c-29.2,0-58.5,0-87.7,0c0,0,0,0,0,0c0,0,0,0,0,0
			c-37.9,0-75.9,0-113.8,0c0,0,0,0,0,0L85.7,203.6C85.7,203.6,85.7,203.6,85.7,203.6z"/>
		<path id="XMLID_48_" class="st3" d="M287.2,208.4c-29.2,0-58.5,0-87.7,0c0,0,0,0,0,0c-37.9,0-75.9,0-113.8,0c0,0,0,0,0,0v4.7
			c0,0,0,0,0,0c13.8,0,27.7,0,41.5,0c24.1,0,48.2,0,72.3,0c0,0,0,0,0,0c29.2,0,58.5,0,87.7,0c13.2,0,24.1-9.8,25.8-22.6
			c0.2-1.1,0.2-2.3,0.2-3.5l-4.7,0C308.5,198.8,299,208.4,287.2,208.4z"/>
		<path id="XMLID_54_" class="st3" d="M303.8,139.2H299c0,16,0,31.9,0,47.9h0h4.7C303.8,171.1,303.8,155.1,303.8,139.2z"/>
		<path id="XMLID_55_" class="st3" d="M309,240.2C309,240.1,308.9,240.1,309,240.2l-7.4,0c0,0,0,0,0,0v8c0,0,0,0,0,0h7.4
			c0,0,0,0,0,0l5.7-4c0,0,0,0,0,0L309,240.2z"/>
		<path id="XMLID_56_" class="st3" d="M287.1,240.1C287.1,240.1,287.1,240.2,287.1,240.1l0,8c0,0,0,0,0,0h8.6c0,0,0,0,0,0v-8
			c0,0,0,0,0,0H287.1z"/>
		<path id="XMLID_57_" class="st3" d="M272.7,240.1C272.7,240.1,272.7,240.2,272.7,240.1l0,8c0,0,0,0,0,0h8.6c0,0,0,0,0,0v-8
			c0,0,0,0,0,0H272.7z"/>
		<path id="XMLID_58_" class="st3" d="M258.3,240.1C258.3,240.1,258.3,240.2,258.3,240.1l0,8c0,0,0,0,0,0h8.6c0,0,0,0,0,0v-8
			c0,0,0,0,0,0H258.3z"/>
		<path id="XMLID_27_" class="st3" d="M252.3,234.5h-67.7c0,0,0,0,0,0v2.1c-32.9,0-65.9,0-98.8,0c0,0,0,0,0,0v4.7c0,0,0,0,0,0
			c32.9,0,65.9,0,98.8,0v4.7c-32.9,0-65.9,0-98.8,0c0,0,0,0,0,0v4.7c0,0,0,0,0,0c13.8,0,27.7,0,41.5,0c19.1,0,38.2,0,57.4,0v2.6
			c0,0,0,0,0,0h67.7c0,0,0,0,0,0L252.3,234.5C252.4,234.5,252.4,234.5,252.3,234.5z"/>
		<path id="XMLID_61_" class="st3" d="M69.4,225h4.7c0-6.5,5.3-11.9,11.9-11.9l0-4.7c0,0,0,0,0,0C76.9,208.4,69.4,215.8,69.4,225z"
			/>
		<g id="XMLID_25_">
			<path id="XMLID_26_" class="st3" d="M86,203.6C86,203.6,86,203.6,86,203.6l0-4.7c0,0,0,0,0,0C71.6,198.9,60,210.6,60,225h0h4.7
				C64.7,213.2,74.2,203.6,86,203.6z"/>
			<path id="XMLID_28_" class="st3" d="M86,250.8v-4.7c-11.8,0-21.3-9.6-21.3-21.3c0,0,0,0,0,0l-4.7,0c0,0,0,0,0,0
				C60,239.2,71.6,250.8,86,250.8z"/>
		</g>
		<path id="XMLID_63_" class="st3" d="M74.2,224.7l-4.7,0c0,0,0,0,0,0c0,9.2,7.4,16.6,16.6,16.6v-4.7
			C79.5,236.6,74.2,231.3,74.2,224.7z"/>
	</g>
</g>
</svg>
