<?xml version="1.0" encoding="utf-8"?>
<!-- Generator: Adobe Illustrator 19.0.0, SVG Export Plug-In . SVG Version: 6.00 Build 0)  -->
<svg version="1.1" id="Layer_1" xmlns="http://www.w3.org/2000/svg" xmlns:xlink="http://www.w3.org/1999/xlink" x="0px" y="0px"
	 viewBox="-180 166.7 249.3 461.3" style="enable-background:new -180 166.7 249.3 461.3;" xml:space="preserve">
<style type="text/css">
	.st0{fill:#F8D911;stroke:#000000;stroke-miterlimit:9.9998;}
	.st1{fill:#525660;stroke:#000000;stroke-miterlimit:9.9998;}
</style>
<rect x="-76.6" y="219.6" transform="matrix(-0.7071 0.7071 -0.7071 -0.7071 163.172 401.6364)" class="st0" width="150" height="30"/>
<rect x="-76.6" y="263.2" transform="matrix(-0.7071 0.7071 -0.7071 -0.7071 194.0117 475.9955)" class="st0" width="150" height="30"/>
<rect x="-76.7" y="306.5" transform="matrix(-0.7071 0.7071 -0.7071 -0.7071 224.4523 550.097)" class="st1" width="150" height="30"/>
<rect x="-76.6" y="350" transform="matrix(-0.7071 0.7071 -0.7071 -0.7071 255.3808 624.2441)" class="st1" width="150" height="30"/>
<rect x="-123.9" y="181.7" transform="matrix(-0.7071 0.7071 -0.7071 -0.7071 -4.4235 515.1492)" class="st1" width="30" height="150"/>
<rect x="-124.1" y="224.9" transform="matrix(-0.7071 0.7071 -0.7071 -0.7071 25.8189 589.126)" class="st1" width="30" height="150"/>
<rect x="-123.8" y="268.3" transform="matrix(-0.7071 0.7071 -0.7071 -0.7071 56.9791 662.9607)" class="st1" width="30" height="150"/>
<rect x="-124.1" y="311.6" transform="matrix(-0.7071 0.7071 -0.7071 -0.7071 87.0631 737.0954)" class="st1" width="30" height="150"/>
<rect x="-76.6" y="393.6" transform="matrix(-0.7071 0.7071 -0.7071 -0.7071 286.2217 698.6033)" class="st0" width="150" height="30"/>
<rect x="-76.6" y="436.9" transform="matrix(-0.7071 0.7071 -0.7071 -0.7071 316.7314 772.5336)" class="st0" width="150" height="30"/>
<rect x="-76.6" y="480.4" transform="matrix(-0.7071 0.7071 -0.7071 -0.7071 347.6011 846.8223)" class="st1" width="150" height="30"/>
<rect x="-76.6" y="524" transform="matrix(-0.7071 0.7071 -0.7071 -0.7071 378.4297 921.2104)" class="st1" width="150" height="30"/>
<rect x="-124.1" y="355" transform="matrix(-0.7071 0.7071 -0.7071 -0.7071 117.8053 811.2299)" class="st1" width="30" height="150"/>
<rect x="-124" y="398.4" transform="matrix(-0.7071 0.7071 -0.7071 -0.7071 148.6076 885.2236)" class="st1" width="30" height="150"/>
<rect x="-124.1" y="441.7" transform="matrix(-0.7071 0.7071 -0.7071 -0.7071 179.1503 959.2415)" class="st1" width="30" height="150"/>
<rect x="-124" y="485.1" transform="matrix(-0.7071 0.7071 -0.7071 -0.7071 209.9934 1033.1935)" class="st1" width="30" height="150"/>
</svg>
