<?xml version="1.0" encoding="utf-8"?>
<!-- Generator: Adobe Illustrator 19.0.0, SVG Export Plug-In . SVG Version: 6.00 Build 0)  -->
<svg version="1.1" id="Layer_1" xmlns="http://www.w3.org/2000/svg" xmlns:xlink="http://www.w3.org/1999/xlink" x="0px" y="0px"
	 viewBox="-180 166.7 249.3 461.3" style="enable-background:new -180 166.7 249.3 461.3;" xml:space="preserve">
<style type="text/css">
	.st0{fill:#3F6D46;stroke:#000000;stroke-miterlimit:9.9999;}
	.st1{fill:#097BB6;stroke:#000000;stroke-miterlimit:9.9999;}
</style>
<rect x="-124" y="159.6" transform="matrix(0.7071 -0.7071 0.7071 0.7071 -197.8292 -8.3921)" class="st0" width="30" height="150"/>
<rect x="-124" y="203.1" transform="matrix(0.7071 -0.7071 0.7071 0.7071 -228.5565 4.3595)" class="st1" width="30" height="150"/>
<rect x="-124.1" y="246.5" transform="matrix(0.7071 -0.7071 0.7071 0.7071 -259.313 17.0402)" class="st0" width="30" height="150"/>
<rect x="-124" y="290" transform="matrix(0.7071 -0.7071 0.7071 0.7071 -290.0361 29.8017)" class="st1" width="30" height="150"/>
<rect x="-76.6" y="241.5" transform="matrix(0.7071 -0.7071 0.7071 0.7071 -181.8755 73.9992)" class="st1" width="150" height="30"/>
<rect x="-76.7" y="284.9" transform="matrix(0.7071 -0.7071 0.7071 0.7071 -212.5622 86.6565)" class="st1" width="150" height="30"/>
<rect x="-76.6" y="328.3" transform="matrix(0.7071 -0.7071 0.7071 0.7071 -243.2094 99.3804)" class="st1" width="150" height="30"/>
<rect x="-76.7" y="371.6" transform="matrix(0.7071 -0.7071 0.7071 0.7071 -273.896 112.0377)" class="st1" width="150" height="30"/>
<rect x="-124" y="333.5" transform="matrix(0.7071 -0.7071 0.7071 0.7071 -320.7634 42.5534)" class="st0" width="30" height="150"/>
<rect x="-124.1" y="376.9" transform="matrix(0.7071 -0.7071 0.7071 0.7071 -351.5199 55.2342)" class="st1" width="30" height="150"/>
<rect x="-124.1" y="420.4" transform="matrix(0.7071 -0.7071 0.7071 0.7071 -382.247 67.9856)" class="st0" width="30" height="150"/>
<rect x="-124" y="463.9" transform="matrix(0.7071 -0.7071 0.7071 0.7071 -412.9702 80.7471)" class="st1" width="30" height="150"/>
<rect x="-76.7" y="415" transform="matrix(0.7071 -0.7071 0.7071 0.7071 -304.5533 124.7657)" class="st1" width="150" height="30"/>
<rect x="-76.6" y="458.4" transform="matrix(0.7071 -0.7071 0.7071 0.7071 -335.2006 137.4897)" class="st1" width="150" height="30"/>
<rect x="-76.7" y="501.7" transform="matrix(0.7071 -0.7071 0.7071 0.7071 -365.8874 150.147)" class="st1" width="150" height="30"/>
<rect x="-76.7" y="545.1" transform="matrix(0.7071 -0.7071 0.7071 0.7071 -396.5346 162.8708)" class="st1" width="150" height="30"/>
</svg>
