<?xml version="1.0" encoding="utf-8"?>
<!-- Generator: Adobe Illustrator 19.0.0, SVG Export Plug-In . SVG Version: 6.00 Build 0)  -->
<svg version="1.1" id="Layer_1" xmlns="http://www.w3.org/2000/svg" xmlns:xlink="http://www.w3.org/1999/xlink" x="0px" y="0px"
	 viewBox="-180 166.7 249.3 461.3" style="enable-background:new -180 166.7 249.3 461.3;" xml:space="preserve">
<style type="text/css">
	.st0{fill:#FFFFFF;stroke:#000000;stroke-miterlimit:9.9998;}
	.st1{fill:#525660;stroke:#000000;stroke-miterlimit:9.9998;}
</style>
<g>
	
		<rect x="-76.6" y="219.6" transform="matrix(0.7071 -0.7071 0.7071 0.7071 -166.3577 67.6028)" class="st0" width="150" height="30"/>
	
		<rect x="-76.6" y="263.2" transform="matrix(0.7071 -0.7071 0.7071 0.7071 -197.1677 80.3399)" class="st0" width="150" height="30"/>
	
		<rect x="-76.7" y="306.5" transform="matrix(0.7071 -0.7071 0.7071 0.7071 -227.841 93.007)" class="st1" width="150" height="30"/>
	
		<rect x="-76.6" y="350" transform="matrix(0.7071 -0.7071 0.7071 0.7071 -258.5627 105.7979)" class="st1" width="150" height="30"/>
	
		<rect x="-123.9" y="181.7" transform="matrix(0.7071 -0.7071 0.7071 0.7071 -213.4198 -1.8497)" class="st1" width="30" height="150"/>
	
		<rect x="-124.1" y="224.9" transform="matrix(0.7071 -0.7071 0.7071 0.7071 -244.025 10.714)" class="st1" width="30" height="150"/>
	
		<rect x="-123.8" y="268.3" transform="matrix(0.7071 -0.7071 0.7071 0.7071 -274.6368 23.6088)" class="st1" width="30" height="150"/>
	
		<rect x="-124.1" y="311.6" transform="matrix(0.7071 -0.7071 0.7071 0.7071 -305.3539 36.0772)" class="st1" width="30" height="150"/>
	
		<rect x="-76.6" y="393.6" transform="matrix(0.7071 -0.7071 0.7071 0.7071 -289.3721 118.5353)" class="st1" width="150" height="30"/>
	
		<rect x="-76.6" y="436.9" transform="matrix(0.7071 -0.7071 0.7071 0.7071 -320.0461 131.2018)" class="st1" width="150" height="30"/>
	
		<rect x="-76.6" y="480.4" transform="matrix(0.7071 -0.7071 0.7071 0.7071 -350.7558 143.9806)" class="st1" width="150" height="30"/>
	
		<rect x="-76.6" y="524" transform="matrix(0.7071 -0.7071 0.7071 0.7071 -381.5774 156.7299)" class="st1" width="150" height="30"/>
	
		<rect x="-124.1" y="355" transform="matrix(0.7071 -0.7071 0.7071 0.7071 -336.0247 48.8232)" class="st1" width="30" height="150"/>
	<rect x="-124" y="398.4" transform="matrix(0.7071 -0.7071 0.7071 0.7071 -366.707 61.582)" class="st1" width="30" height="150"/>
	
		<rect x="-124.1" y="441.7" transform="matrix(0.7071 -0.7071 0.7071 0.7071 -397.312 74.2284)" class="st1" width="30" height="150"/>
	
		<rect x="-124" y="485.1" transform="matrix(0.7071 -0.7071 0.7071 0.7071 -427.9652 86.9748)" class="st1" width="30" height="150"/>
</g>
</svg>
