<?xml version="1.0" encoding="utf-8"?>
<!-- Generator: Adobe Illustrator 19.0.0, SVG Export Plug-In . SVG Version: 6.00 Build 0)  -->
<svg version="1.1" id="Layer_1" xmlns="http://www.w3.org/2000/svg" xmlns:xlink="http://www.w3.org/1999/xlink" x="0px" y="0px"
	 viewBox="-180 166.7 249.3 461.3" style="enable-background:new -180 166.7 249.3 461.3;" xml:space="preserve">
<style type="text/css">
	.st0{fill:#F8D911;stroke:#000000;stroke-miterlimit:9.9998;}
	.st1{fill:#525660;stroke:#000000;stroke-miterlimit:9.9998;}
</style>
<rect x="-76.6" y="219.6" transform="matrix(0.7071 -0.7071 0.7071 0.7071 -166.3639 67.6086)" class="st0" width="150" height="30"/>
<rect x="-76.6" y="263.2" transform="matrix(0.7071 -0.7071 0.7071 0.7071 -197.1409 80.3652)" class="st1" width="150" height="30"/>
<rect x="-76.7" y="306.6" transform="matrix(0.7071 -0.7071 0.7071 0.7071 -227.8701 93.0057)" class="st0" width="150" height="30"/>
<rect x="-76.6" y="350" transform="matrix(0.7071 -0.7071 0.7071 0.7071 -258.571 105.8045)" class="st1" width="150" height="30"/>
<rect x="-123.9" y="181.7" transform="matrix(0.7071 -0.7071 0.7071 0.7071 -213.4431 -1.8226)" class="st1" width="30" height="150"/>
<rect x="-124.1" y="224.9" transform="matrix(0.7071 -0.7071 0.7071 0.7071 -244.03 10.7118)" class="st1" width="30" height="150"/>
<rect x="-123.8" y="268.3" transform="matrix(0.7071 -0.7071 0.7071 0.7071 -274.6129 23.5951)" class="st1" width="30" height="150"/>
<rect x="-124.1" y="311.6" transform="matrix(0.7071 -0.7071 0.7071 0.7071 -305.3286 36.0516)" class="st1" width="30" height="150"/>
<rect x="-76.6" y="393.6" transform="matrix(0.7071 -0.7071 0.7071 0.7071 -289.3481 118.562)" class="st0" width="150" height="30"/>
<rect x="-76.7" y="437" transform="matrix(0.7071 -0.7071 0.7071 0.7071 -320.0769 131.2013)" class="st1" width="150" height="30"/>
<rect x="-76.6" y="480.4" transform="matrix(0.7071 -0.7071 0.7071 0.7071 -350.7541 143.9998)" class="st0" width="150" height="30"/>
<rect x="-76.6" y="524" transform="matrix(0.7071 -0.7071 0.7071 0.7071 -381.555 156.7572)" class="st1" width="150" height="30"/>
<rect x="-124.1" y="355" transform="matrix(0.7071 -0.7071 0.7071 0.7071 -336.0339 48.815)" class="st1" width="30" height="150"/>
<rect x="-124" y="398.4" transform="matrix(0.7071 -0.7071 0.7071 0.7071 -366.6928 61.5503)" class="st1" width="30" height="150"/>
<rect x="-124.1" y="441.7" transform="matrix(0.7071 -0.7071 0.7071 0.7071 -397.3327 74.2386)" class="st1" width="30" height="150"/>
<rect x="-124" y="485.1" transform="matrix(0.7071 -0.7071 0.7071 0.7071 -427.9501 86.9904)" class="st1" width="30" height="150"/>
</svg>
