<?xml version="1.0" encoding="utf-8"?>
<!-- Generator: Adobe Illustrator 19.0.0, SVG Export Plug-In . SVG Version: 6.00 Build 0)  -->
<svg version="1.1" id="Layer_1" xmlns="http://www.w3.org/2000/svg" xmlns:xlink="http://www.w3.org/1999/xlink" x="0px" y="0px"
	 viewBox="-180 166.7 249.3 461.3" style="enable-background:new -180 166.7 249.3 461.3;" xml:space="preserve">
<style type="text/css">
	.st0{fill:#FFFFFF;stroke:#020200;stroke-miterlimit:10;}
</style>
<rect x="-77.2" y="220.1" transform="matrix(-0.7071 0.7071 -0.7071 -0.7071 162.5638 402.9222)" class="st0" width="150" height="30"/>
<rect x="-77.2" y="263.6" transform="matrix(-0.7071 0.7071 -0.7071 -0.7071 193.3042 477.1266)" class="st0" width="150" height="30"/>
<rect x="-77.2" y="307.1" transform="matrix(-0.7071 0.7071 -0.7071 -0.7071 224.0446 551.3312)" class="st0" width="150" height="30"/>
<rect x="-77.2" y="350.5" transform="matrix(-0.7071 0.7071 -0.7071 -0.7071 254.7679 625.5286)" class="st0" width="150" height="30"/>
<rect x="-184.5" y="242.1" transform="matrix(0.7071 0.7071 -0.7071 0.7071 149.6974 152.7613)" class="st0" width="150" height="30"/>
<rect x="-184.6" y="285.4" transform="matrix(0.7071 0.7071 -0.7071 0.7071 180.3619 165.4657)" class="st0" width="150" height="30"/>
<rect x="-184.5" y="328.8" transform="matrix(0.7071 0.7071 -0.7071 0.7071 211.0234 178.1629)" class="st0" width="150" height="30"/>
<rect x="-184.6" y="372.2" transform="matrix(0.7071 0.7071 -0.7071 0.7071 241.6878 190.8672)" class="st0" width="150" height="30"/>
<rect x="-77.2" y="394" transform="matrix(-0.7071 0.7071 -0.7071 -0.7071 285.5083 699.7332)" class="st0" width="150" height="30"/>
<rect x="-77.2" y="437.5" transform="matrix(-0.7071 0.7071 -0.7071 -0.7071 316.2486 773.9375)" class="st0" width="150" height="30"/>
<rect x="-77.2" y="480.9" transform="matrix(-0.7071 0.7071 -0.7071 -0.7071 346.9891 848.1418)" class="st0" width="150" height="30"/>
<rect x="-77.2" y="524.4" transform="matrix(-0.7071 0.7071 -0.7071 -0.7071 377.7125 922.3394)" class="st0" width="150" height="30"/>
<rect x="-184.6" y="415.5" transform="matrix(0.7071 0.7071 -0.7071 0.7071 272.3522 203.5715)" class="st0" width="150" height="30"/>
<rect x="-184.6" y="458.9" transform="matrix(0.7071 0.7071 -0.7071 0.7071 303.0137 216.2688)" class="st0" width="150" height="30"/>
<rect x="-184.6" y="502.3" transform="matrix(0.7071 0.7071 -0.7071 0.7071 333.6782 228.9732)" class="st0" width="150" height="30"/>
<rect x="-184.6" y="545.6" transform="matrix(0.7071 0.7071 -0.7071 0.7071 364.3397 241.6704)" class="st0" width="150" height="30"/>
</svg>
