<?xml version="1.0" encoding="utf-8"?>
<!-- Generator: Adobe Illustrator 19.0.0, SVG Export Plug-In . SVG Version: 6.00 Build 0)  -->
<svg version="1.1" id="Layer_1" xmlns="http://www.w3.org/2000/svg" xmlns:xlink="http://www.w3.org/1999/xlink" x="0px" y="0px"
	 viewBox="-180 166.7 249.3 461.3" style="enable-background:new -180 166.7 249.3 461.3;" xml:space="preserve">
<style type="text/css">
	.st0{fill:#097BB6;stroke:#000000;stroke-miterlimit:9.9998;}
	.st1{fill:#F8D911;stroke:#000000;stroke-miterlimit:9.9998;}
</style>
<rect x="-76.6" y="219.6" transform="matrix(0.7071 -0.7071 0.7071 0.7071 -166.3647 67.553)" class="st0" width="150" height="30"/>
<rect x="-76.6" y="263.1" transform="matrix(0.7071 -0.7071 0.7071 0.7071 -197.1253 80.3193)" class="st1" width="150" height="30"/>
<rect x="-76.7" y="306.5" transform="matrix(0.7071 -0.7071 0.7071 0.7071 -227.8149 92.9734)" class="st0" width="150" height="30"/>
<rect x="-76.6" y="350" transform="matrix(0.7071 -0.7071 0.7071 0.7071 -258.5694 105.7455)" class="st1" width="150" height="30"/>
<rect x="-124" y="181.6" transform="matrix(0.7071 -0.7071 0.7071 0.7071 -213.3894 -1.9065)" class="st1" width="30" height="150"/>
<rect x="-124.1" y="224.9" transform="matrix(0.7071 -0.7071 0.7071 0.7071 -244.0039 10.7194)" class="st1" width="30" height="150"/>
<rect x="-123.9" y="268.2" transform="matrix(0.7071 -0.7071 0.7071 0.7071 -274.5832 23.5341)" class="st1" width="30" height="150"/>
<rect x="-124.1" y="311.6" transform="matrix(0.7071 -0.7071 0.7071 0.7071 -305.3101 36.0894)" class="st1" width="30" height="150"/>
<rect x="-76.6" y="393.5" transform="matrix(0.7071 -0.7071 0.7071 0.7071 -289.3299 118.5116)" class="st0" width="150" height="30"/>
<rect x="-76.7" y="436.9" transform="matrix(0.7071 -0.7071 0.7071 0.7071 -320.0197 131.1659)" class="st1" width="150" height="30"/>
<rect x="-76.6" y="480.4" transform="matrix(0.7071 -0.7071 0.7071 0.7071 -350.7803 143.9322)" class="st0" width="150" height="30"/>
<rect x="-76.6" y="523.9" transform="matrix(0.7071 -0.7071 0.7071 0.7071 -381.5349 156.7042)" class="st1" width="150" height="30"/>
<rect x="-124.1" y="355" transform="matrix(0.7071 -0.7071 0.7071 0.7071 -335.9955 48.8275)" class="st1" width="30" height="150"/>
<rect x="-124" y="398.4" transform="matrix(0.7071 -0.7071 0.7071 0.7071 -366.6868 61.5714)" class="st1" width="30" height="150"/>
<rect x="-124.1" y="441.7" transform="matrix(0.7071 -0.7071 0.7071 0.7071 -397.3014 74.1973)" class="st1" width="30" height="150"/>
<rect x="-124" y="485.1" transform="matrix(0.7071 -0.7071 0.7071 0.7071 -427.9927 86.9413)" class="st1" width="30" height="150"/>
</svg>
