<?xml version="1.0" encoding="utf-8"?>
<!-- Generator: Adobe Illustrator 24.0.1, SVG Export Plug-In . SVG Version: 6.00 Build 0)  -->
<svg version="1.1" id="Layer_1" xmlns="http://www.w3.org/2000/svg" xmlns:xlink="http://www.w3.org/1999/xlink" x="0px" y="0px"
	 viewBox="0 0 249.3 461.3" style="enable-background:new 0 0 249.3 461.3;" xml:space="preserve">
<style type="text/css">
	.st0{fill:#3162AE;stroke:#000000;stroke-width:1;stroke-miterlimit:9.9998;}
	.st1{fill:#FFFFFF;stroke:#000000;stroke-width:1;stroke-miterlimit:9.9998;}
</style>
<rect x="55.4" y="-6.6" transform="matrix(0.7071 -0.7071 0.7071 0.7071 -27.7634 69.8223)" class="st0" width="30" height="150"/>
<rect x="55.4" y="36.9" transform="matrix(0.7071 -0.7071 0.7071 0.7071 -58.5235 82.5449)" class="st0" width="30" height="150"/>
<rect x="55.4" y="80.3" transform="matrix(0.7071 -0.7071 0.7071 0.7071 -89.2127 95.297)" class="st1" width="30" height="150"/>
<rect x="55.4" y="123.8" transform="matrix(0.7071 -0.7071 0.7071 0.7071 -119.9685 108.0154)" class="st1" width="30" height="150"/>
<rect x="102.8" y="75.4" transform="matrix(0.7071 -0.7071 0.7071 0.7071 -11.8717 152.1805)" class="st1" width="150" height="30"/>
<rect x="102.8" y="118.7" transform="matrix(0.7071 -0.7071 0.7071 0.7071 -42.4872 164.9024)" class="st1" width="150" height="30"/>
<rect x="102.7" y="162.1" transform="matrix(0.7071 -0.7071 0.7071 0.7071 -73.1483 177.5202)" class="st1" width="150" height="30"/>
<rect x="102.8" y="205.4" transform="matrix(0.7071 -0.7071 0.7071 0.7071 -103.7931 190.3127)" class="st1" width="150" height="30"/>
<rect x="55.4" y="167.3" transform="matrix(0.7071 -0.7071 0.7071 0.7071 -150.7285 120.7382)" class="st0" width="30" height="150"/>
<rect x="55.4" y="210.7" transform="matrix(0.7071 -0.7071 0.7071 0.7071 -181.4178 133.4901)" class="st0" width="30" height="150"/>
<rect x="55.4" y="254.2" transform="matrix(0.7071 -0.7071 0.7071 0.7071 -212.1778 146.2128)" class="st1" width="30" height="150"/>
<rect x="55.4" y="297.7" transform="matrix(0.7071 -0.7071 0.7071 0.7071 -242.9337 158.9314)" class="st1" width="30" height="150"/>
<rect x="102.8" y="248.8" transform="matrix(0.7071 -0.7071 0.7071 0.7071 -134.4793 203.0053)" class="st1" width="150" height="30"/>
<rect x="102.8" y="292.2" transform="matrix(0.7071 -0.7071 0.7071 0.7071 -165.1696 215.6938)" class="st1" width="150" height="30"/>
<rect x="102.8" y="335.5" transform="matrix(0.7071 -0.7071 0.7071 0.7071 -195.7852 228.4157)" class="st1" width="150" height="30"/>
<rect x="102.8" y="378.9" transform="matrix(0.7071 -0.7071 0.7071 0.7071 -226.4755 241.1042)" class="st1" width="150" height="30"/>
</svg>
