<?xml version="1.0" encoding="utf-8"?>
<!-- Generator: Adobe Illustrator 24.0.1, SVG Export Plug-In . SVG Version: 6.00 Build 0)  -->
<svg version="1.1" id="Layer_1" xmlns="http://www.w3.org/2000/svg" xmlns:xlink="http://www.w3.org/1999/xlink" x="0px" y="0px"
	 viewBox="0 0 249.3 461.3" style="enable-background:new 0 0 249.3 461.3;" xml:space="preserve">
<style type="text/css">
	.st0{fill:#FFCA13;stroke:#000000;stroke-width:1;stroke-miterlimit:9.9999;}
	.st1{fill:#FFFFFF;stroke:#000000;stroke-width:1;stroke-miterlimit:9.9999;}
</style>
<rect x="55.4" y="-6.6" transform="matrix(0.7071 -0.7071 0.7071 0.7071 -27.7317 69.8481)" class="st0" width="30" height="150"/>
<rect x="55.4" y="36.9" transform="matrix(0.7071 -0.7071 0.7071 0.7071 -58.4693 82.5784)" class="st1" width="30" height="150"/>
<rect x="55.4" y="80.3" transform="matrix(0.7071 -0.7071 0.7071 0.7071 -89.207 95.3087)" class="st0" width="30" height="150"/>
<rect x="55.4" y="123.8" transform="matrix(0.7071 -0.7071 0.7071 0.7071 -119.9376 108.042)" class="st1" width="30" height="150"/>
<rect x="102.8" y="75.4" transform="matrix(0.7071 -0.7071 0.7071 0.7071 -11.8021 152.21)" class="st1" width="150" height="30"/>
<rect x="102.8" y="118.7" transform="matrix(0.7071 -0.7071 0.7071 0.7071 -42.4666 164.9144)" class="st1" width="150" height="30"/>
<rect x="102.8" y="162.1" transform="matrix(0.7071 -0.7071 0.7071 0.7071 -73.1281 177.6116)" class="st1" width="150" height="30"/>
<rect x="102.8" y="205.4" transform="matrix(0.7071 -0.7071 0.7071 0.7071 -103.7925 190.3159)" class="st1" width="150" height="30"/>
<rect x="55.4" y="167.3" transform="matrix(0.7071 -0.7071 0.7071 0.7071 -150.6752 120.7724)" class="st0" width="30" height="150"/>
<rect x="55.4" y="210.7" transform="matrix(0.7071 -0.7071 0.7071 0.7071 -181.4128 133.5027)" class="st1" width="30" height="150"/>
<rect x="55.4" y="254.2" transform="matrix(0.7071 -0.7071 0.7071 0.7071 -212.1505 146.2329)" class="st0" width="30" height="150"/>
<rect x="55.4" y="297.7" transform="matrix(0.7071 -0.7071 0.7071 0.7071 -242.8811 158.9662)" class="st1" width="30" height="150"/>
<rect x="102.8" y="248.8" transform="matrix(0.7071 -0.7071 0.7071 0.7071 -134.4569 203.0202)" class="st1" width="150" height="30"/>
<rect x="102.8" y="292.2" transform="matrix(0.7071 -0.7071 0.7071 0.7071 -165.1184 215.7175)" class="st1" width="150" height="30"/>
<rect x="102.8" y="335.5" transform="matrix(0.7071 -0.7071 0.7071 0.7071 -195.7829 228.4219)" class="st1" width="150" height="30"/>
<rect x="102.8" y="378.9" transform="matrix(0.7071 -0.7071 0.7071 0.7071 -226.4444 241.1191)" class="st1" width="150" height="30"/>
</svg>
