<?xml version="1.0" encoding="utf-8"?>
<!-- Generator: Adobe Illustrator 19.0.0, SVG Export Plug-In . SVG Version: 6.00 Build 0)  -->
<svg version="1.1" id="Layer_1" xmlns="http://www.w3.org/2000/svg" xmlns:xlink="http://www.w3.org/1999/xlink" x="0px" y="0px"
	 viewBox="-180 166.7 249.3 461.3" style="enable-background:new -180 166.7 249.3 461.3;" xml:space="preserve">
<style type="text/css">
	.st0{fill:#097BB6;stroke:#000000;stroke-miterlimit:9.9998;}
	.st1{fill:#CCA056;stroke:#000000;stroke-miterlimit:9.9998;}
</style>
<rect x="-124" y="159.6" transform="matrix(0.7071 -0.7071 0.7071 0.7071 -197.7921 -8.4102)" class="st0" width="30" height="150"/>
<rect x="-124" y="203.1" transform="matrix(0.7071 -0.7071 0.7071 0.7071 -228.5853 4.3572)" class="st0" width="30" height="150"/>
<rect x="-124.1" y="246.5" transform="matrix(0.7071 -0.7071 0.7071 0.7071 -259.2841 17.0373)" class="st1" width="30" height="150"/>
<rect x="-124" y="290" transform="matrix(0.7071 -0.7071 0.7071 0.7071 -289.9984 29.7842)" class="st1" width="30" height="150"/>
<rect x="-76.6" y="241.6" transform="matrix(0.7071 -0.7071 0.7071 0.7071 -181.9067 73.988)" class="st1" width="150" height="30"/>
<rect x="-76.7" y="284.9" transform="matrix(0.7071 -0.7071 0.7071 0.7071 -212.5328 86.6448)" class="st1" width="150" height="30"/>
<rect x="-76.7" y="328.3" transform="matrix(0.7071 -0.7071 0.7071 0.7071 -243.2337 99.3275)" class="st1" width="150" height="30"/>
<rect x="-76.6" y="371.5" transform="matrix(0.7071 -0.7071 0.7071 0.7071 -273.8013 112.067)" class="st1" width="150" height="30"/>
<rect x="-124" y="333.5" transform="matrix(0.7071 -0.7071 0.7071 0.7071 -320.7921 42.5518)" class="st0" width="30" height="150"/>
<rect x="-124.1" y="376.9" transform="matrix(0.7071 -0.7071 0.7071 0.7071 -351.4904 55.2316)" class="st0" width="30" height="150"/>
<rect x="-124.1" y="420.4" transform="matrix(0.7071 -0.7071 0.7071 0.7071 -382.2131 67.9701)" class="st1" width="30" height="150"/>
<rect x="-124" y="463.9" transform="matrix(0.7071 -0.7071 0.7071 0.7071 -412.9984 80.7459)" class="st1" width="30" height="150"/>
<rect x="-76.7" y="415" transform="matrix(0.7071 -0.7071 0.7071 0.7071 -304.5224 124.753)" class="st1" width="150" height="30"/>
<rect x="-76.7" y="458.4" transform="matrix(0.7071 -0.7071 0.7071 0.7071 -335.2354 137.4895)" class="st1" width="150" height="30"/>
<rect x="-76.7" y="501.7" transform="matrix(0.7071 -0.7071 0.7071 0.7071 -365.8616 150.146)" class="st1" width="150" height="30"/>
<rect x="-76.7" y="545.1" transform="matrix(0.7071 -0.7071 0.7071 0.7071 -396.5745 162.8824)" class="st1" width="150" height="30"/>
</svg>
