<?xml version="1.0" encoding="utf-8"?>
<!-- Generator: Adobe Illustrator 19.0.0, SVG Export Plug-In . SVG Version: 6.00 Build 0)  -->
<svg version="1.1" id="Layer_1" xmlns="http://www.w3.org/2000/svg" xmlns:xlink="http://www.w3.org/1999/xlink" x="0px" y="0px"
	 viewBox="-180 166.7 249.3 461.3" style="enable-background:new -180 166.7 249.3 461.3;" xml:space="preserve">
<style type="text/css">
	.st0{fill:#097BB6;stroke:#000000;stroke-miterlimit:9.9998;}
	.st1{fill:#CCA056;stroke:#000000;stroke-miterlimit:9.9998;}
</style>
<rect x="-76.6" y="219.6" transform="matrix(0.7071 -0.7071 0.7071 0.7071 -166.3604 67.5747)" class="st0" width="150" height="30"/>
<rect x="-76.6" y="263.1" transform="matrix(0.7071 -0.7071 0.7071 0.7071 -197.1466 80.3392)" class="st0" width="150" height="30"/>
<rect x="-76.6" y="306.5" transform="matrix(0.7071 -0.7071 0.7071 0.7071 -227.8495 93.0211)" class="st1" width="150" height="30"/>
<rect x="-76.6" y="350" transform="matrix(0.7071 -0.7071 0.7071 0.7071 -258.5647 105.7683)" class="st1" width="150" height="30"/>
<rect x="-124" y="181.7" transform="matrix(0.7071 -0.7071 0.7071 0.7071 -213.4245 -1.897)" class="st1" width="30" height="150"/>
<rect x="-124.1" y="224.9" transform="matrix(0.7071 -0.7071 0.7071 0.7071 -244.0243 10.6905)" class="st1" width="30" height="150"/>
<rect x="-123.9" y="268.3" transform="matrix(0.7071 -0.7071 0.7071 0.7071 -274.624 23.5555)" class="st1" width="30" height="150"/>
<rect x="-124.1" y="311.6" transform="matrix(0.7071 -0.7071 0.7071 0.7071 -305.3361 36.1306)" class="st1" width="30" height="150"/>
<rect x="-76.6" y="393.5" transform="matrix(0.7071 -0.7071 0.7071 0.7071 -289.3505 118.5327)" class="st1" width="150" height="30"/>
<rect x="-76.6" y="436.9" transform="matrix(0.7071 -0.7071 0.7071 0.7071 -320.054 131.2146)" class="st1" width="150" height="30"/>
<rect x="-76.6" y="480.4" transform="matrix(0.7071 -0.7071 0.7071 0.7071 -350.7693 143.9498)" class="st1" width="150" height="30"/>
<rect x="-76.6" y="523.9" transform="matrix(0.7071 -0.7071 0.7071 0.7071 -381.5552 156.7262)" class="st1" width="150" height="30"/>
<rect x="-124.1" y="355" transform="matrix(0.7071 -0.7071 0.7071 0.7071 -336.019 48.8007)" class="st1" width="30" height="150"/>
<rect x="-124" y="398.4" transform="matrix(0.7071 -0.7071 0.7071 0.7071 -366.7012 61.5829)" class="st1" width="30" height="150"/>
<rect x="-124" y="441.7" transform="matrix(0.7071 -0.7071 0.7071 0.7071 -397.3303 74.2409)" class="st1" width="30" height="150"/>
<rect x="-124" y="485.1" transform="matrix(0.7071 -0.7071 0.7071 0.7071 -427.9835 86.9524)" class="st1" width="30" height="150"/>
</svg>
