<?xml version="1.0" encoding="utf-8"?>
<!-- Generator: Adobe Illustrator 19.0.0, SVG Export Plug-In . SVG Version: 6.00 Build 0)  -->
<svg version="1.1" id="Layer_1" xmlns="http://www.w3.org/2000/svg" xmlns:xlink="http://www.w3.org/1999/xlink" x="0px" y="0px"
	 viewBox="-180 166.7 249.3 461.3" style="enable-background:new -180 166.7 249.3 461.3;" xml:space="preserve">
<style type="text/css">
	.st0{fill:#F8D911;stroke:#000000;stroke-miterlimit:9.9998;}
	.st1{fill:#3F6D46;stroke:#000000;stroke-miterlimit:9.9998;}
</style>
<rect x="-77.6" y="219.6" transform="matrix(-0.7071 0.7071 -0.7071 -0.7071 161.433 402.3403)" class="st0" width="150" height="30"/>
<rect x="-77.6" y="263.1" transform="matrix(-0.7071 0.7071 -0.7071 -0.7071 192.2071 476.6436)" class="st0" width="150" height="30"/>
<rect x="-76.7" y="306.5" transform="matrix(-0.7071 0.7071 -0.7071 -0.7071 224.4884 550.0981)" class="st1" width="150" height="30"/>
<rect x="-76.6" y="350" transform="matrix(-0.7071 0.7071 -0.7071 -0.7071 255.3478 624.2364)" class="st1" width="150" height="30"/>
<rect x="-124" y="181.6" transform="matrix(-0.7071 0.7071 -0.7071 -0.7071 -4.6377 515.2075)" class="st1" width="30" height="150"/>
<rect x="-124.1" y="225" transform="matrix(-0.7071 0.7071 -0.7071 -0.7071 25.874 589.1972)" class="st1" width="30" height="150"/>
<rect x="-123.9" y="268.2" transform="matrix(-0.7071 0.7071 -0.7071 -0.7071 56.7917 662.9721)" class="st1" width="30" height="150"/>
<rect x="-124.1" y="311.6" transform="matrix(-0.7071 0.7071 -0.7071 -0.7071 87.1619 737.1621)" class="st1" width="30" height="150"/>
<rect x="-77.6" y="393.5" transform="matrix(-0.7071 0.7071 -0.7071 -0.7071 284.4146 699.2462)" class="st0" width="150" height="30"/>
<rect x="-77.7" y="436.9" transform="matrix(-0.7071 0.7071 -0.7071 -0.7071 314.9887 773.4083)" class="st0" width="150" height="30"/>
<rect x="-76.6" y="480.4" transform="matrix(-0.7071 0.7071 -0.7071 -0.7071 347.5406 846.8338)" class="st1" width="150" height="30"/>
<rect x="-76.6" y="523.9" transform="matrix(-0.7071 0.7071 -0.7071 -0.7071 378.3286 921.1426)" class="st1" width="150" height="30"/>
<rect x="-124.1" y="355.1" transform="matrix(-0.7071 0.7071 -0.7071 -0.7071 117.8737 811.2933)" class="st1" width="30" height="150"/>
<rect x="-124" y="398.4" transform="matrix(-0.7071 0.7071 -0.7071 -0.7071 148.6501 885.268)" class="st1" width="30" height="150"/>
<rect x="-124.1" y="441.7" transform="matrix(-0.7071 0.7071 -0.7071 -0.7071 179.1617 959.2578)" class="st1" width="30" height="150"/>
<rect x="-124" y="485.1" transform="matrix(-0.7071 0.7071 -0.7071 -0.7071 209.9382 1033.2328)" class="st1" width="30" height="150"/>
</svg>
