<?xml version="1.0" encoding="utf-8"?>
<!-- Generator: Adobe Illustrator 19.0.0, SVG Export Plug-In . SVG Version: 6.00 Build 0)  -->
<svg version="1.1" id="Layer_1" xmlns="http://www.w3.org/2000/svg" xmlns:xlink="http://www.w3.org/1999/xlink" x="0px" y="0px"
	 viewBox="-180 166.7 249.3 461.3" style="enable-background:new -180 166.7 249.3 461.3;" xml:space="preserve">
<style type="text/css">
	.st0{fill:#CCA056;stroke:#000000;stroke-miterlimit:9.9999;}
	.st1{fill:#525660;stroke:#000000;stroke-miterlimit:9.9999;}
</style>
<rect x="-124" y="159.6" transform="matrix(0.7071 -0.7071 0.7071 0.7071 -197.7913 -8.3691)" class="st0" width="30" height="150"/>
<rect x="-123.9" y="203.1" transform="matrix(0.7071 -0.7071 0.7071 0.7071 -228.5719 4.4347)" class="st1" width="30" height="150"/>
<rect x="-124.1" y="246.6" transform="matrix(0.7071 -0.7071 0.7071 0.7071 -259.3399 17.0681)" class="st0" width="30" height="150"/>
<rect x="-124" y="290" transform="matrix(0.7071 -0.7071 0.7071 0.7071 -289.9989 29.8216)" class="st1" width="30" height="150"/>
<rect x="-76.7" y="241.5" transform="matrix(0.7071 -0.7071 0.7071 0.7071 -181.8894 73.9533)" class="st1" width="150" height="30"/>
<rect x="-76.8" y="284.9" transform="matrix(0.7071 -0.7071 0.7071 0.7071 -212.6105 86.5847)" class="st1" width="150" height="30"/>
<rect x="-76.6" y="328.3" transform="matrix(0.7071 -0.7071 0.7071 0.7071 -243.2115 99.3902)" class="st1" width="150" height="30"/>
<rect x="-76.8" y="371.6" transform="matrix(0.7071 -0.7071 0.7071 0.7071 -273.9208 111.9926)" class="st1" width="150" height="30"/>
<rect x="-123.9" y="333.5" transform="matrix(0.7071 -0.7071 0.7071 0.7071 -320.7797 42.6255)" class="st0" width="30" height="150"/>
<rect x="-124.1" y="377" transform="matrix(0.7071 -0.7071 0.7071 0.7071 -351.5481 55.2588)" class="st1" width="30" height="150"/>
<rect x="-124" y="420.4" transform="matrix(0.7071 -0.7071 0.7071 0.7071 -382.2574 68.0338)" class="st0" width="30" height="150"/>
<rect x="-123.9" y="463.9" transform="matrix(0.7071 -0.7071 0.7071 0.7071 -412.9872 80.8165)" class="st1" width="30" height="150"/>
<rect x="-76.8" y="415" transform="matrix(0.7071 -0.7071 0.7071 0.7071 -304.6125 124.695)" class="st1" width="150" height="30"/>
<rect x="-76.6" y="458.4" transform="matrix(0.7071 -0.7071 0.7071 0.7071 -335.2137 137.5004)" class="st1" width="150" height="30"/>
<rect x="-76.8" y="501.8" transform="matrix(0.7071 -0.7071 0.7071 0.7071 -365.9228 150.1022)" class="st1" width="150" height="30"/>
<rect x="-76.7" y="545.1" transform="matrix(0.7071 -0.7071 0.7071 0.7071 -396.5649 162.8663)" class="st1" width="150" height="30"/>
</svg>
