<?xml version="1.0" encoding="utf-8"?>
<!-- Generator: Adobe Illustrator 19.0.0, SVG Export Plug-In . SVG Version: 6.00 Build 0)  -->
<svg version="1.1" id="Layer_1" xmlns="http://www.w3.org/2000/svg" xmlns:xlink="http://www.w3.org/1999/xlink" x="0px" y="0px"
	 viewBox="-180 166.7 249.3 461.3" style="enable-background:new -180 166.7 249.3 461.3;" xml:space="preserve">
<style type="text/css">
	.st0{fill:#F8D911;stroke:#000000;stroke-miterlimit:9.9999;}
	.st1{fill:#FFFFFF;stroke:#000000;stroke-miterlimit:9.9999;}
</style>
<rect x="-77.2" y="220.1" transform="matrix(-0.7071 0.7071 -0.7071 -0.7071 162.5176 402.9322)" class="st0" width="150" height="30"/>
<rect x="-77.2" y="263.6" transform="matrix(-0.7071 0.7071 -0.7071 -0.7071 193.3094 477.1617)" class="st0" width="150" height="30"/>
<rect x="-77.2" y="307" transform="matrix(-0.7071 0.7071 -0.7071 -0.7071 223.9301 551.3206)" class="st1" width="150" height="30"/>
<rect x="-77.2" y="350.5" transform="matrix(-0.7071 0.7071 -0.7071 -0.7071 254.7217 625.5358)" class="st1" width="150" height="30"/>
<rect x="-124.6" y="182.1" transform="matrix(-0.7071 0.7071 -0.7071 -0.7071 -5.2055 516.3976)" class="st1" width="30" height="150"/>
<rect x="-124.6" y="225.4" transform="matrix(-0.7071 0.7071 -0.7071 -0.7071 25.3406 590.379)" class="st1" width="30" height="150"/>
<rect x="-124.5" y="268.8" transform="matrix(-0.7071 0.7071 -0.7071 -0.7071 56.1425 664.2607)" class="st1" width="30" height="150"/>
<rect x="-124.6" y="312.1" transform="matrix(-0.7071 0.7071 -0.7071 -0.7071 86.6182 738.413)" class="st1" width="30" height="150"/>
<rect x="-77.2" y="394" transform="matrix(-0.7071 0.7071 -0.7071 -0.7071 285.5132 699.7655)" class="st1" width="150" height="30"/>
<rect x="-77.2" y="437.4" transform="matrix(-0.7071 0.7071 -0.7071 -0.7071 316.1342 773.9243)" class="st1" width="150" height="30"/>
<rect x="-77.2" y="480.9" transform="matrix(-0.7071 0.7071 -0.7071 -0.7071 346.9258 848.1539)" class="st1" width="150" height="30"/>
<rect x="-77.2" y="524.4" transform="matrix(-0.7071 0.7071 -0.7071 -0.7071 377.7175 922.3695)" class="st1" width="150" height="30"/>
<rect x="-124.6" y="355.5" transform="matrix(-0.7071 0.7071 -0.7071 -0.7071 117.3353 812.4652)" class="st1" width="30" height="150"/>
<rect x="-124.6" y="398.9" transform="matrix(-0.7071 0.7071 -0.7071 -0.7071 148.0665 886.5175)" class="st1" width="30" height="150"/>
<rect x="-124.6" y="442.2" transform="matrix(-0.7071 0.7071 -0.7071 -0.7071 178.6128 960.4992)" class="st1" width="30" height="150"/>
<rect x="-124.6" y="485.6" transform="matrix(-0.7071 0.7071 -0.7071 -0.7071 209.3439 1034.5514)" class="st1" width="30" height="150"/>
</svg>
