<?xml version="1.0" encoding="utf-8"?>
<!-- Generator: Adobe Illustrator 19.0.0, SVG Export Plug-In . SVG Version: 6.00 Build 0)  -->
<svg version="1.1" id="Layer_1" xmlns="http://www.w3.org/2000/svg" xmlns:xlink="http://www.w3.org/1999/xlink" x="0px" y="0px"
	 viewBox="-180 166.7 249.3 461.3" style="enable-background:new -180 166.7 249.3 461.3;" xml:space="preserve">
<style type="text/css">
	.st0{fill:#CC3333;stroke:#000000;stroke-miterlimit:9.9998;}
	.st1{fill:#3F6D46;stroke:#000000;stroke-miterlimit:9.9998;}
</style>
<rect x="-124" y="159.6" transform="matrix(-0.7071 0.7071 -0.7071 -0.7071 -20.2358 477.5183)" class="st0" width="30" height="150"/>
<rect x="-124.1" y="203.1" transform="matrix(-0.7071 0.7071 -0.7071 -0.7071 10.4673 551.9023)" class="st0" width="30" height="150"/>
<rect x="-124" y="246.5" transform="matrix(-0.7071 0.7071 -0.7071 -0.7071 41.1831 625.9165)" class="st1" width="30" height="150"/>
<rect x="-124" y="290" transform="matrix(-0.7071 0.7071 -0.7071 -0.7071 71.9716 700.1241)" class="st1" width="30" height="150"/>
<rect x="-76.7" y="241.6" transform="matrix(-0.7071 0.7071 -0.7071 -0.7071 178.5984 439.2264)" class="st1" width="150" height="30"/>
<rect x="-76.6" y="284.9" transform="matrix(-0.7071 0.7071 -0.7071 -0.7071 209.2515 513.0707)" class="st1" width="150" height="30"/>
<rect x="-76.7" y="328.2" transform="matrix(-0.7071 0.7071 -0.7071 -0.7071 239.7571 587.1594)" class="st1" width="150" height="30"/>
<rect x="-76.7" y="371.6" transform="matrix(-0.7071 0.7071 -0.7071 -0.7071 270.5395 661.1155)" class="st1" width="150" height="30"/>
<rect x="-124.1" y="333.5" transform="matrix(-0.7071 0.7071 -0.7071 -0.7071 102.6748 774.5088)" class="st1" width="30" height="150"/>
<rect x="-124" y="376.9" transform="matrix(-0.7071 0.7071 -0.7071 -0.7071 133.3903 848.5223)" class="st1" width="30" height="150"/>
<rect x="-124" y="420.4" transform="matrix(-0.7071 0.7071 -0.7071 -0.7071 164.1646 922.7361)" class="st1" width="30" height="150"/>
<rect x="-124.1" y="463.9" transform="matrix(-0.7071 0.7071 -0.7071 -0.7071 194.8819 997.1147)" class="st1" width="30" height="150"/>
<rect x="-76.6" y="415" transform="matrix(-0.7071 0.7071 -0.7071 -0.7071 301.2512 735.1596)" class="st1" width="150" height="30"/>
<rect x="-76.7" y="458.4" transform="matrix(-0.7071 0.7071 -0.7071 -0.7071 331.8863 809.3606)" class="st1" width="150" height="30"/>
<rect x="-76.6" y="501.7" transform="matrix(-0.7071 0.7071 -0.7071 -0.7071 362.5392 883.2046)" class="st1" width="150" height="30"/>
<rect x="-76.7" y="545.1" transform="matrix(-0.7071 0.7071 -0.7071 -0.7071 393.1743 957.4056)" class="st1" width="150" height="30"/>
</svg>
