<?xml version="1.0" encoding="utf-8"?>
<!-- Generator: Adobe Illustrator 19.0.0, SVG Export Plug-In . SVG Version: 6.00 Build 0)  -->
<svg version="1.1" id="Layer_1" xmlns="http://www.w3.org/2000/svg" xmlns:xlink="http://www.w3.org/1999/xlink" x="0px" y="0px"
	 viewBox="-180 166.7 249.3 461.3" style="enable-background:new -180 166.7 249.3 461.3;" xml:space="preserve">
<style type="text/css">
	.st0{fill:#525660;stroke:#000000;stroke-miterlimit:9.9999;}
	.st1{fill:#CCA056;stroke:#000000;stroke-miterlimit:9.9999;}
</style>
<rect x="-124" y="159.6" transform="matrix(-0.7071 0.7071 -0.7071 -0.7071 -20.1659 477.5431)" class="st0" width="30" height="150"/>
<rect x="-124" y="203.1" transform="matrix(-0.7071 0.7071 -0.7071 -0.7071 10.6582 551.8594)" class="st1" width="30" height="150"/>
<rect x="-124.1" y="246.6" transform="matrix(-0.7071 0.7071 -0.7071 -0.7071 41.2122 626.1459)" class="st0" width="30" height="150"/>
<rect x="-124" y="290" transform="matrix(-0.7071 0.7071 -0.7071 -0.7071 72.0364 700.1487)" class="st1" width="30" height="150"/>
<rect x="-76.6" y="241.5" transform="matrix(-0.7071 0.7071 -0.7071 -0.7071 178.585 439.0519)" class="st1" width="150" height="30"/>
<rect x="-76.7" y="285" transform="matrix(-0.7071 0.7071 -0.7071 -0.7071 209.1601 513.2809)" class="st1" width="150" height="30"/>
<rect x="-76.6" y="328.2" transform="matrix(-0.7071 0.7071 -0.7071 -0.7071 239.9346 587.0984)" class="st1" width="150" height="30"/>
<rect x="-76.7" y="371.6" transform="matrix(-0.7071 0.7071 -0.7071 -0.7071 270.4098 661.2277)" class="st1" width="150" height="30"/>
<rect x="-124" y="333.5" transform="matrix(-0.7071 0.7071 -0.7071 -0.7071 102.8605 774.4653)" class="st0" width="30" height="150"/>
<rect x="-124.1" y="377" transform="matrix(-0.7071 0.7071 -0.7071 -0.7071 133.4142 848.7522)" class="st1" width="30" height="150"/>
<rect x="-124" y="420.5" transform="matrix(-0.7071 0.7071 -0.7071 -0.7071 164.3098 922.8973)" class="st0" width="30" height="150"/>
<rect x="-124" y="463.9" transform="matrix(-0.7071 0.7071 -0.7071 -0.7071 195.0632 997.0709)" class="st1" width="30" height="150"/>
<rect x="-76.7" y="415.1" transform="matrix(-0.7071 0.7071 -0.7071 -0.7071 301.1559 735.386)" class="st1" width="150" height="30"/>
<rect x="-76.6" y="458.3" transform="matrix(-0.7071 0.7071 -0.7071 -0.7071 331.9302 809.2036)" class="st1" width="150" height="30"/>
<rect x="-76.7" y="501.7" transform="matrix(-0.7071 0.7071 -0.7071 -0.7071 362.4049 883.3326)" class="st1" width="150" height="30"/>
<rect x="-76.6" y="545.1" transform="matrix(-0.7071 0.7071 -0.7071 -0.7071 393.2502 957.3203)" class="st1" width="150" height="30"/>
</svg>
