<?xml version="1.0" encoding="utf-8"?>
<!-- Generator: Adobe Illustrator 19.0.0, SVG Export Plug-In . SVG Version: 6.00 Build 0)  -->
<svg version="1.1" id="Layer_1" xmlns="http://www.w3.org/2000/svg" xmlns:xlink="http://www.w3.org/1999/xlink" x="0px" y="0px"
	 viewBox="-180 166.7 249.3 461.3" style="enable-background:new -180 166.7 249.3 461.3;" xml:space="preserve">
<style type="text/css">
	.st0{fill:#FFFFFF;stroke:#000000;stroke-miterlimit:9.9998;}
	.st1{fill:#525660;stroke:#000000;stroke-miterlimit:9.9998;}
</style>
<g>
	
		<rect x="-76.6" y="219.6" transform="matrix(-0.7071 0.7071 -0.7071 -0.7071 163.1721 401.6364)" class="st0" width="150" height="30"/>
	
		<rect x="-76.6" y="263.2" transform="matrix(-0.7071 0.7071 -0.7071 -0.7071 194.0117 475.9954)" class="st1" width="150" height="30"/>
	
		<rect x="-76.7" y="306.5" transform="matrix(-0.7071 0.7071 -0.7071 -0.7071 224.4523 550.0972)" class="st0" width="150" height="30"/>
	
		<rect x="-76.6" y="350" transform="matrix(-0.7071 0.7071 -0.7071 -0.7071 255.3809 624.244)" class="st1" width="150" height="30"/>
	
		<rect x="-124" y="181.7" transform="matrix(-0.7071 0.7071 -0.7071 -0.7071 -4.494 515.3199)" class="st1" width="30" height="150"/>
	
		<rect x="-124.1" y="224.9" transform="matrix(-0.7071 0.7071 -0.7071 -0.7071 25.819 589.1261)" class="st1" width="30" height="150"/>
	
		<rect x="-123.8" y="268.3" transform="matrix(-0.7071 0.7071 -0.7071 -0.7071 56.9793 662.9607)" class="st1" width="30" height="150"/>
	
		<rect x="-124.1" y="311.6" transform="matrix(-0.7071 0.7071 -0.7071 -0.7071 87.0631 737.0955)" class="st1" width="30" height="150"/>
	
		<rect x="-76.6" y="393.6" transform="matrix(-0.7071 0.7071 -0.7071 -0.7071 286.2216 698.6035)" class="st0" width="150" height="30"/>
	
		<rect x="-76.7" y="436.9" transform="matrix(-0.7071 0.7071 -0.7071 -0.7071 316.6609 772.7043)" class="st1" width="150" height="30"/>
	
		<rect x="-76.6" y="480.4" transform="matrix(-0.7071 0.7071 -0.7071 -0.7071 347.6011 846.8223)" class="st0" width="150" height="30"/>
	
		<rect x="-76.6" y="524" transform="matrix(-0.7071 0.7071 -0.7071 -0.7071 378.4297 921.2105)" class="st1" width="150" height="30"/>
	
		<rect x="-124.1" y="355" transform="matrix(-0.7071 0.7071 -0.7071 -0.7071 117.8053 811.23)" class="st1" width="30" height="150"/>
	
		<rect x="-124" y="398.4" transform="matrix(-0.7071 0.7071 -0.7071 -0.7071 148.6076 885.2237)" class="st1" width="30" height="150"/>
	
		<rect x="-124.1" y="441.7" transform="matrix(-0.7071 0.7071 -0.7071 -0.7071 179.1505 959.2415)" class="st1" width="30" height="150"/>
	
		<rect x="-124" y="485.1" transform="matrix(-0.7071 0.7071 -0.7071 -0.7071 209.9934 1033.1934)" class="st1" width="30" height="150"/>
</g>
</svg>
