<?xml version="1.0" encoding="utf-8"?>
<!-- Generator: Adobe Illustrator 24.0.1, SVG Export Plug-In . SVG Version: 6.00 Build 0)  -->
<svg version="1.1" id="Layer_1" xmlns="http://www.w3.org/2000/svg" xmlns:xlink="http://www.w3.org/1999/xlink" x="0px" y="0px"
	 viewBox="0 0 249.3 461.27" style="enable-background:new 0 0 249.3 461.27;" xml:space="preserve">
<style type="text/css">
	.st0{fill:#FFC913;stroke:#000000;stroke-miterlimit:10;}
	.st1{fill:#343A40;stroke:#000000;stroke-miterlimit:10;}
</style>
<rect x="-4.56" y="53.4" transform="matrix(-0.7071 -0.7071 0.7071 -0.7071 71.8877 166.5858)" class="st0" width="150" height="30"/>
<rect x="-4.56" y="96.87" transform="matrix(-0.7071 -0.7071 0.7071 -0.7071 41.152 240.7883)" class="st1" width="150" height="30"/>
<rect x="-4.56" y="140.34" transform="matrix(-0.7071 -0.7071 0.7071 -0.7071 10.4163 314.9907)" class="st0" width="150" height="30"/>
<rect x="-4.56" y="183.8" transform="matrix(-0.7071 -0.7071 0.7071 -0.7071 -20.3194 389.1932)" class="st1" width="150" height="30"/>
<rect x="102.84" y="75.35" transform="matrix(0.7071 -0.7071 0.7071 0.7071 -11.7989 152.2113)" class="st1" width="150" height="30"/>
<rect x="102.84" y="118.71" transform="matrix(0.7071 -0.7071 0.7071 0.7071 -42.462 164.9124)" class="st1" width="150" height="30"/>
<rect x="102.84" y="162.08" transform="matrix(0.7071 -0.7071 0.7071 0.7071 -73.1251 177.6135)" class="st1" width="150" height="30"/>
<rect x="102.84" y="205.44" transform="matrix(0.7071 -0.7071 0.7071 0.7071 -103.7882 190.3146)" class="st1" width="150" height="30"/>
<rect x="-4.56" y="227.27" transform="matrix(-0.7071 -0.7071 0.7071 -0.7071 -51.055 463.3956)" class="st0" width="150" height="30"/>
<rect x="-4.56" y="270.74" transform="matrix(-0.7071 -0.7071 0.7071 -0.7071 -81.7907 537.5981)" class="st1" width="150" height="30"/>
<rect x="-4.56" y="314.21" transform="matrix(-0.7071 -0.7071 0.7071 -0.7071 -112.5264 611.8005)" class="st0" width="150" height="30"/>
<rect x="-4.56" y="357.67" transform="matrix(-0.7071 -0.7071 0.7071 -0.7071 -143.2621 686.003)" class="st1" width="150" height="30"/>
<rect x="102.84" y="248.8" transform="matrix(0.7071 -0.7071 0.7071 0.7071 -134.4513 203.0157)" class="st1" width="150" height="30"/>
<rect x="102.84" y="292.17" transform="matrix(0.7071 -0.7071 0.7071 0.7071 -165.1145 215.7168)" class="st1" width="150" height="30"/>
<rect x="102.84" y="335.53" transform="matrix(0.7071 -0.7071 0.7071 0.7071 -195.7776 228.4179)" class="st1" width="150" height="30"/>
<rect x="102.84" y="378.9" transform="matrix(0.7071 -0.7071 0.7071 0.7071 -226.4407 241.119)" class="st1" width="150" height="30"/>
</svg>
