<?xml version="1.0" encoding="utf-8"?>
<!-- Generator: Adobe Illustrator 19.0.0, SVG Export Plug-In . SVG Version: 6.00 Build 0)  -->
<svg version="1.1" id="Layer_1" xmlns="http://www.w3.org/2000/svg" xmlns:xlink="http://www.w3.org/1999/xlink" x="0px" y="0px"
	 viewBox="-180 166.7 249.3 461.3" style="enable-background:new -180 166.7 249.3 461.3;" xml:space="preserve">
<style type="text/css">
	.st0{fill:#3F6D46;stroke:#000000;stroke-miterlimit:9.9998;}
	.st1{fill:#CCA056;stroke:#000000;stroke-miterlimit:9.9998;}
</style>
<rect x="-76.6" y="215.3" transform="matrix(-0.7071 0.7071 -0.7071 -0.7071 160.1488 394.3422)" class="st0" width="150" height="30"/>
<rect x="-76.6" y="259.9" transform="matrix(-0.7071 0.7071 -0.7071 -0.7071 191.594 470.3897)" class="st0" width="150" height="30"/>
<rect x="-76.6" y="304.4" transform="matrix(-0.7071 0.7071 -0.7071 -0.7071 223.0607 546.4283)" class="st1" width="150" height="30"/>
<rect x="-76.6" y="348.9" transform="matrix(-0.7071 0.7071 -0.7071 -0.7071 254.6272 622.4256)" class="st1" width="150" height="30"/>
<rect x="-124" y="177.6" transform="matrix(-0.7071 0.7071 -0.7071 -0.7071 -7.4139 508.2852)" class="st1" width="30" height="150"/>
<rect x="-124.1" y="222.1" transform="matrix(-0.7071 0.7071 -0.7071 -0.7071 23.8667 584.4009)" class="st1" width="30" height="150"/>
<rect x="-123.9" y="266.7" transform="matrix(-0.7071 0.7071 -0.7071 -0.7071 55.751 660.2665)" class="st1" width="30" height="150"/>
<rect x="-124.1" y="311.2" transform="matrix(-0.7071 0.7071 -0.7071 -0.7071 86.8399 736.4616)" class="st1" width="30" height="150"/>
<rect x="-76.6" y="393.5" transform="matrix(-0.7071 0.7071 -0.7071 -0.7071 286.0731 698.4728)" class="st0" width="150" height="30"/>
<rect x="-76.6" y="438" transform="matrix(-0.7071 0.7071 -0.7071 -0.7071 317.5387 774.5118)" class="st0" width="150" height="30"/>
<rect x="-76.6" y="482.6" transform="matrix(-0.7071 0.7071 -0.7071 -0.7071 349.105 850.5092)" class="st1" width="150" height="30"/>
<rect x="-76.6" y="527.1" transform="matrix(-0.7071 0.7071 -0.7071 -0.7071 380.5507 926.5565)" class="st1" width="150" height="30"/>
<rect x="-124.1" y="355.8" transform="matrix(-0.7071 0.7071 -0.7071 -0.7071 118.3407 812.4861)" class="st1" width="30" height="150"/>
<rect x="-124" y="400.3" transform="matrix(-0.7071 0.7071 -0.7071 -0.7071 149.9634 888.4601)" class="st1" width="30" height="150"/>
<rect x="-124" y="444.8" transform="matrix(-0.7071 0.7071 -0.7071 -0.7071 181.4354 964.4965)" class="st1" width="30" height="150"/>
<rect x="-124" y="489.4" transform="matrix(-0.7071 0.7071 -0.7071 -0.7071 212.987 1040.5)" class="st1" width="30" height="150"/>
</svg>
